<?xml version="1.0" encoding="UTF-8" standalone="no"?>
<!-- Created with Inkscape (http://www.inkscape.org/) -->

<svg
   version="1.1"
   id="svg1"
   width="243.43253"
   height="66.274521"
   viewBox="0 0 243.43253 66.274521"
   xmlns="http://www.w3.org/2000/svg"
   xmlns:svg="http://www.w3.org/2000/svg">
  <defs
     id="defs1" />
  <g
     id="g1"
     transform="translate(-143.37866,-185.54182)">
    <g
       id="g380">
      <path
         id="path181"
         d="m 328.0985,421.90814 c -1.58928,-1.38664 -5.05468,-1.57937 -8.14675,-1.74161 -1.09895,-0.0449 -1.9534,-0.97219 -1.90848,-2.07113 0.0449,-1.09894 0.9722,-1.95337 2.07113,-1.90848 3.28428,0.32318 6.87525,-0.0483 10.5903,2.70935 0.8317,0.7197 0.92253,1.97733 0.20283,2.80905 -0.71966,0.8317 -1.97733,0.92252 -2.80903,0.20282 z"
         style="fill:#f05268;fill-opacity:1;fill-rule:nonzero;stroke:none"
         transform="scale(0.49792048)" />
      <path
         id="path182"
         d="m 319.95175,420.16653 c -1.5878,-0.0648 -3.16553,-0.0713 -4.73559,0.003 -1.09866,0.0514 -2.03101,-0.7975 -2.08243,-1.89615 -0.0514,-1.09865 0.79747,-2.03098 1.89612,-2.08243 1.70098,-0.0805 3.40088,-0.0728 5.08455,-0.004 l -0.16265,3.97961 z"
         style="fill:#f05268;fill-opacity:1;fill-rule:nonzero;stroke:none"
         transform="scale(0.49792048)" />
      <path
         id="path183"
         d="m 315.21616,420.1695 c -5.57883,0.28234 -11.17862,1.47644 -16.5842,3.20565 -1.04779,0.33438 -2.16826,-0.24399 -2.50263,-1.29178 -0.33438,-1.04779 0.24397,-2.16827 1.29177,-2.50262 5.67262,-1.81045 11.5524,-3.08017 17.60875,-3.38983 z"
         style="fill:#f05268;fill-opacity:1;fill-rule:nonzero;stroke:none"
         transform="scale(0.49792048)" />
      <path
         id="path184"
         d="m 298.63196,423.37515 c -2.02496,0.66098 -4.14151,1.35593 -5.78729,2.22968 -0.96477,0.52817 -2.17499,0.17425 -2.70317,-0.79047 -0.5282,-0.96472 -0.17428,-2.17499 0.79045,-2.70316 2.25067,-1.17547 4.34605,-1.81896 6.48915,-2.53045 z"
         style="fill:#f05268;fill-opacity:1;fill-rule:nonzero;stroke:none"
         transform="scale(0.49792048)" />
      <path
         id="path185"
         d="m 292.84467,425.60483 c -0.70295,0.2185 -1.27665,1.25339 -0.90657,0.29527 -0.0173,1.09972 -0.9228,1.9772 -2.02254,1.95985 -1.09973,-0.0173 -1.97716,-0.92282 -1.95986,-2.02255 0.66512,-2.98245 2.0902,-2.9935 2.97625,-3.7262 z"
         style="fill:#f05268;fill-opacity:1;fill-rule:nonzero;stroke:none"
         transform="scale(0.49792048)" />
      <path
         id="path186"
         d="m 292.06598,426.0254 c 0.30664,1.0563 -0.30112,2.16115 -1.35745,2.4677 -1.05623,0.30655 -2.16095,-0.30117 -2.46756,-1.35736 l -0.20657,-0.71182 c -0.30665,-1.05632 0.30114,-2.16116 1.35745,-2.46774 1.05625,-0.30652 2.16098,0.30117 2.46755,1.35739 z"
         style="fill:#f05268;fill-opacity:1;fill-rule:nonzero;stroke:none"
         transform="scale(0.49792048)" />
      <path
         id="path187"
         d="m 292.1775,425.87823 c 0.7184,0.83292 0.6255,2.09055 -0.2075,2.80887 -0.83288,0.7182 -2.09024,0.6253 -2.80853,-0.20746 l -0.51602,-0.59838 c -0.71842,-0.83292 -0.62549,-2.09056 0.20752,-2.80886 0.83285,-0.7182 2.09023,-0.62532 2.80853,0.20745 z"
         style="fill:#f05268;fill-opacity:1;fill-rule:nonzero;stroke:none"
         transform="scale(0.49792048)" />
      <path
         id="path188"
         d="m 292.01288,425.70883 c 3.05685,2.16944 7.88222,4.05567 12.00928,5.95967 1.00509,0.4466 1.45779,1.62346 1.01117,2.62856 -0.44663,1.00509 -1.62348,1.45779 -2.62858,1.01117 -4.34292,-2.06953 -8.46569,-3.39789 -13.0787,-6.65921 z"
         style="fill:#f05268;fill-opacity:1;fill-rule:nonzero;stroke:none"
         transform="scale(0.49792048)" />
      <path
         id="path189"
         d="m 304.02216,431.6685 c 11.45224,5.10173 22.99462,10.4813 33.06338,18.83693 0.93456,0.84775 1.00491,2.29257 0.15716,3.22711 -0.84774,0.93454 -2.29257,1.00492 -3.2271,0.15716 -8.9714,-7.98034 -20.22962,-13.6928 -31.61085,-18.58147 z"
         style="fill:#f05268;fill-opacity:1;fill-rule:nonzero;stroke:none"
         transform="scale(0.49792048)" />
      <path
         id="path190"
         d="m 337.08554,450.50543 c 3.7421,3.61331 8.70646,8.08093 7.51993,15.57941 -0.34417,1.33591 -1.70617,2.13986 -3.04205,1.79566 -1.33592,-0.34418 -2.13987,-1.70618 -1.79566,-3.0421 0.95024,-3.25588 -2.2774,-7.7791 -5.75216,-10.9487 z"
         style="fill:#f05268;fill-opacity:1;fill-rule:nonzero;stroke:none"
         transform="scale(0.49792048)" />
      <path
         id="path191"
         d="m 344.60547,466.08484 c -0.59485,2.39923 -2.12697,4.31106 -3.77407,5.64993 -1.0752,0.88291 -2.6626,0.72703 -3.5455,-0.3482 -0.88295,-1.07523 -0.72703,-2.6626 0.34816,-3.54554 1.08887,-0.89373 1.84644,-1.93255 2.1337,-3.00263 z"
         style="fill:#f05268;fill-opacity:1;fill-rule:nonzero;stroke:none"
         transform="scale(0.49792048)" />
      <path
         id="path192"
         d="m 340.8314,471.73477 c -2.3081,1.86536 -4.91395,2.91541 -7.50004,3.60077 -1.30516,0.36076 -2.65561,-0.40481 -3.01639,-1.70996 -0.36075,-1.30515 0.40483,-2.65564 1.70996,-3.01638 2.11207,-0.6234 4.10907,-1.53288 5.60913,-2.76817 z"
         style="fill:#f05268;fill-opacity:1;fill-rule:nonzero;stroke:none"
         transform="scale(0.49792048)" />
      <path
         id="path193"
         d="m 333.33136,475.33554 c -2.86099,0.7381 -5.73426,1.01874 -8.61053,0.98172 -1.25229,0.013 -2.27805,-0.99161 -2.29108,-2.2439 -0.013,-1.25232 0.99158,-2.27806 2.2439,-2.2911 2.50325,-0.11499 5.01779,-0.48654 7.35128,-1.17306 z"
         style="fill:#f05268;fill-opacity:1;fill-rule:nonzero;stroke:none"
         transform="scale(0.49792048)" />
      <path
         id="path194"
         d="m 324.72083,476.31726 c -1.26539,-0.0192 -2.56253,-0.10852 -3.82905,-0.26764 -1.182,-0.10727 -2.05325,-1.15246 -1.94598,-2.3345 0.1073,-1.18202 1.1525,-2.05325 2.33453,-1.94599 1.13392,0.0597 2.24857,0.0635 3.39332,0.0131 l 0.0472,4.535 z"
         style="fill:#f05268;fill-opacity:1;fill-rule:nonzero;stroke:none"
         transform="scale(0.49792048)" />
      <path
         id="path195"
         d="m 320.89178,476.04962 c -5.68582,-0.80222 -11.09088,-2.51926 -16.06768,-5.01629 -0.9857,-0.48795 -1.38916,-1.68259 -0.9012,-2.66828 0.488,-0.98569 1.6826,-1.38915 2.6683,-0.90118 4.6698,2.24026 9.6136,4.14425 14.68913,4.30526 z"
         style="fill:#f05268;fill-opacity:1;fill-rule:nonzero;stroke:none"
         transform="scale(0.49792048)" />
      <path
         id="path196"
         d="m 304.8241,471.03333 c -3.94162,-1.95166 -7.67676,-4.34656 -11.06528,-7.19943 -0.84032,-0.7096 -0.94632,-1.96607 -0.23672,-2.8064 0.7096,-0.84034 1.96606,-0.94632 2.8064,-0.23673 3.11626,2.6239 6.58727,4.85391 10.2627,6.6731 z"
         style="fill:#f05268;fill-opacity:1;fill-rule:nonzero;stroke:none"
         transform="scale(0.49792048)" />
      <path
         id="path197"
         d="m 389.1644,433.7424 0.0288,-0.0701"
         style="fill:none;stroke:#f05268;stroke-width:3.98293;stroke-linecap:round;stroke-linejoin:miter;stroke-miterlimit:10;stroke-dasharray:none;stroke-opacity:1"
         transform="scale(0.49792048)" />
      <path
         id="path198"
         d="m 387.35065,432.91684 c 0.47265,-1.01938 0.82641,-2.53552 0.70385,-2.29524 -0.37445,-1.03417 0.16037,-2.17604 1.19452,-2.5505 1.03415,-0.3744 2.17606,0.16038 2.55048,1.19456 0.61456,2.81804 -0.39166,3.80807 -0.76367,5.16217 z"
         style="fill:#f05268;fill-opacity:1;fill-rule:nonzero;stroke:none"
         transform="scale(0.49792048)" />
      <path
         id="path199"
         d="m 388.0545,430.6216 c 0.0195,0.0437 -0.005,-0.0376 -0.18347,-0.1765 -0.86288,-0.68198 -1.00953,-1.93436 -0.32751,-2.79724 0.68198,-0.86289 1.93435,-1.00952 2.79724,-0.32752 0.52934,0.41864 1.13074,1.04256 1.45874,1.94532 z"
         style="fill:#f05268;fill-opacity:1;fill-rule:nonzero;stroke:none"
         transform="scale(0.49792048)" />
      <path
         id="path200"
         d="m 387.87103,430.4451 c -0.18078,-0.14456 -0.47663,-0.31363 -0.81161,-0.45984 -1.00672,-0.4429 -1.46382,-1.61806 -1.02092,-2.62482 0.44295,-1.00671 1.61812,-1.4638 2.62483,-1.0209 0.54297,0.24188 1.1015,0.53049 1.67743,0.9808 z"
         style="fill:#f05268;fill-opacity:1;fill-rule:nonzero;stroke:none"
         transform="scale(0.49792048)" />
      <path
         id="path201"
         d="m 387.05942,429.98526 c -0.36012,-0.15842 -0.76859,-0.29892 -1.19416,-0.41962 -1.0581,-0.3002 -1.67248,-1.4013 -1.37231,-2.45941 0.3002,-1.05807 1.40131,-1.67248 2.45941,-1.37228 0.56269,0.16028 1.12979,0.3508 1.71097,0.60559 z"
         style="fill:#f05268;fill-opacity:1;fill-rule:nonzero;stroke:none"
         transform="scale(0.49792048)" />
      <path
         id="path202"
         d="m 385.86526,429.56564 c -5.61053,-1.45181 -12.00446,-0.45108 -17.4519,2.11411 -0.99658,0.4653 -2.18166,0.0346 -2.64694,-0.96201 -0.4653,-0.99661 -0.0346,-2.18167 0.962,-2.64697 6.1796,-2.86407 13.26978,-4.10815 20.22394,-2.33682 z"
         style="fill:#f05268;fill-opacity:1;fill-rule:nonzero;stroke:none"
         transform="scale(0.49792048)" />
      <path
         id="path203"
         d="m 368.41336,431.67975 c -3.89606,1.82065 -7.42129,4.4219 -10.06482,7.72785 -0.68854,0.8577 -1.94198,0.9948 -2.79968,0.30627 -0.85766,-0.68851 -0.99478,-1.94197 -0.30628,-2.79967 3.0781,-3.84596 7.11286,-6.7999 11.48584,-8.84343 z"
         style="fill:#f05268;fill-opacity:1;fill-rule:nonzero;stroke:none"
         transform="scale(0.49792048)" />
      <path
         id="path204"
         d="m 358.34854,439.4076 c -2.69922,3.3488 -4.4884,7.42 -5.35388,11.689 -0.21876,1.07787 -1.2699,1.7743 -2.34778,1.55556 -1.07788,-0.21876 -1.77432,-1.2699 -1.55558,-2.34778 0.97636,-4.81991 3.01447,-9.49698 6.15128,-13.39018 z"
         style="fill:#f05268;fill-opacity:1;fill-rule:nonzero;stroke:none"
         transform="scale(0.49792048)" />
      <path
         id="path205"
         d="m 352.99466,451.0966 c -1.09516,5.4829 -0.88526,11.82436 2.73929,15.39418 0.78338,0.77202 0.79263,2.0329 0.0206,2.81629 -0.77201,0.78338 -2.0329,0.79263 -2.81628,0.0206 -5.21995,-5.45148 -4.96964,-12.9113 -3.847,-19.02332 l 3.90336,0.79222 z"
         style="fill:#f05268;fill-opacity:1;fill-rule:nonzero;stroke:none"
         transform="scale(0.49792048)" />
      <path
         id="path206"
         d="m 355.73395,466.49078 c 1.54028,1.5224 3.70733,2.50278 6.06715,2.90872 1.09734,0.22016 1.80846,1.28824 1.58827,2.3856 -0.22015,1.09738 -1.28823,1.80847 -2.38559,1.5883 -2.83308,-0.63298 -5.80014,-1.78685 -8.06548,-4.0457 z"
         style="fill:#f05268;fill-opacity:1;fill-rule:nonzero;stroke:none"
         transform="scale(0.49792048)" />
      <path
         id="path207"
         d="m 361.8011,469.3995 c 2.5908,0.44376 5.30373,0.3416 7.87688,-0.2426 1.19888,-0.2465 2.37057,0.5256 2.61706,1.72448 0.24649,1.19888 -0.5256,2.37057 -1.72448,2.61706 -3.15816,0.5914 -6.41366,0.57148 -9.56678,-0.12504 z"
         style="fill:#f05268;fill-opacity:1;fill-rule:nonzero;stroke:none"
         transform="scale(0.49792048)" />
      <path
         id="path208"
         d="m 369.67798,469.1569 c 2.89892,-0.65522 5.64056,-1.9311 8.06375,-3.68073 1.06009,-0.74857 2.52631,-0.49604 3.2749,0.56403 0.74857,1.06008 0.49607,2.5263 -0.56403,3.2749 -2.94247,2.05032 -6.33184,3.5207 -9.88204,4.18334 z"
         style="fill:#f05268;fill-opacity:1;fill-rule:nonzero;stroke:none"
         transform="scale(0.49792048)" />
      <path
         id="path209"
         d="m 377.74173,465.47617 c 2.83194,-2.03745 5.23327,-4.70762 7.21807,-7.70392 0.7286,-1.10089 2.21168,-1.40271 3.31257,-0.67411 1.10089,0.72858 1.40268,2.21166 0.6741,3.31254 -2.23547,3.38906 -5.05084,6.51696 -8.49387,8.90442 z"
         style="fill:#f05268;fill-opacity:1;fill-rule:nonzero;stroke:none"
         transform="scale(0.49792048)" />
      <path
         id="path210"
         d="m 384.9598,457.77225 c 9.22093,-14.56285 10.08067,-33.29801 10.2444,-50.89398 -0.0164,-1.10862 0.86895,-2.02063 1.97753,-2.03705 1.10861,-0.0165 2.02063,0.86892 2.03705,1.97754 0.0631,17.90014 -0.0873,37.08734 -10.27231,53.59192 z"
         style="fill:#f05268;fill-opacity:1;fill-rule:nonzero;stroke:none"
         transform="scale(0.49792048)" />
      <path
         id="path211"
         d="m 395.2042,406.87827 c -0.11384,-7.65293 -0.54432,-15.36921 -1.77457,-22.81315 -0.18863,-1.08355 0.53683,-2.11489 1.62039,-2.30352 1.08356,-0.18863 2.1149,0.53683 2.30353,1.6204 1.30151,7.8351 1.68551,15.62368 1.86523,23.43676 l -4.01458,0.0595 z"
         style="fill:#f05268;fill-opacity:1;fill-rule:nonzero;stroke:none"
         transform="scale(0.49792048)" />
      <path
         id="path212"
         d="m 393.42963,384.06512 c -0.20728,-2.82656 -2.267,-7.67522 -1.73905,-7.45132 -1.09818,0.0612 -2.03802,-0.7794 -2.09924,-1.87753 -0.0612,-1.09817 0.77939,-2.03803 1.87756,-2.09925 6.4766,3.81025 4.47782,7.26462 5.88465,10.74498 z"
         style="fill:#f05268;fill-opacity:1;fill-rule:nonzero;stroke:none"
         transform="scale(0.49792048)" />
      <path
         id="path213"
         d="m 391.8513,376.67758 c -1.0096,0.43649 -2.18187,-0.0281 -2.6183,-1.03775 -0.43637,-1.00953 0.0282,-2.18167 1.0377,-2.61813 l 0.51873,-0.2242 c 1.00957,-0.4365 2.18185,0.0281 2.61827,1.03774 0.43642,1.00952 -0.0282,2.18166 -1.03767,2.61813 z"
         style="fill:#f05268;fill-opacity:1;fill-rule:nonzero;stroke:none"
         transform="scale(0.49792048)" />
      <path
         id="path214"
         d="m 392.1881,376.59183 c -0.7185,0.83257 -1.97588,0.92514 -2.80858,0.20672 -0.83282,-0.71853 -0.92539,-1.97619 -0.20676,-2.80893 l 0.38054,-0.44107 c 0.71852,-0.83261 1.97594,-0.92515 2.8086,-0.20672 0.83283,0.71853 0.9254,1.97617 0.20676,2.80893 z"
         style="fill:#f05268;fill-opacity:1;fill-rule:nonzero;stroke:none"
         transform="scale(0.49792048)" />
      <path
         id="path215"
         d="m 392.1426,376.7681 c -0.5273,0.96524 -1.73727,1.32025 -2.70248,0.7929 -0.96517,-0.5273 -1.32016,-1.7372 -0.7929,-2.7024 l 0.28555,-0.52263 c 0.52728,-0.96524 1.73723,-1.32022 2.70248,-0.79291 0.96518,0.52731 1.32015,1.73721 0.79288,2.70239 z"
         style="fill:#f05268;fill-opacity:1;fill-rule:nonzero;stroke:none"
         transform="scale(0.49792048)" />
      <path
         id="path216"
         d="m 392.20053,376.6534 c -2.52075,8.65864 -2.91763,19.16737 -3.20981,28.9145 -0.0201,1.09967 -0.92792,1.97482 -2.02759,1.95468 -1.09967,-0.0201 -1.97479,-0.92788 -1.95468,-2.02755 0.39025,-10.1735 0.46473,-19.9531 3.58085,-30.52173 z"
         style="fill:#f05268;fill-opacity:1;fill-rule:nonzero;stroke:none"
         transform="scale(0.49792048)" />
      <path
         id="path217"
         d="m 388.99072,405.5679 c -0.20547,14.13144 0.62508,28.54352 4.03113,42.05646 0.29721,1.05896 -0.32031,2.15832 -1.37927,2.4555 -1.05893,0.29722 -2.1583,-0.32031 -2.45551,-1.37924 -3.58893,-14.29245 -4.3696,-28.75542 -4.17862,-43.20559 l 3.98227,0.0729 z"
         style="fill:#f05268;fill-opacity:1;fill-rule:nonzero;stroke:none"
         transform="scale(0.49792048)" />
      <path
         id="path218"
         d="m 393.02185,447.62436 c 1.89722,6.34734 4.71445,13.73004 9.62425,16.6698 0.99034,0.47842 1.40535,1.6691 0.92696,2.65944 -0.47839,0.99037 -1.66906,1.40538 -2.65942,0.92698 -7.44214,-4.83703 -9.4227,-12.29708 -11.72657,-19.17996 z"
         style="fill:#f05268;fill-opacity:1;fill-rule:nonzero;stroke:none"
         transform="scale(0.49792048)" />
      <path
         id="path219"
         d="m 402.6461,464.29416 c 0.7035,0.34177 1.4985,0.55426 2.3575,0.66171 1.09143,0.1359 1.86606,1.13083 1.7302,2.22226 -0.1359,1.09143 -1.13083,1.86607 -2.22226,1.73017 -1.19538,-0.14866 -2.43421,-0.46293 -3.5979,-1.02772 z"
         style="fill:#f05268;fill-opacity:1;fill-rule:nonzero;stroke:none"
         transform="scale(0.49792048)" />
      <path
         id="path220"
         d="m 405.18744,464.97705 c 1.09259,0.12631 1.87591,1.11438 1.7496,2.20697 -0.12628,1.09258 -1.11441,1.87592 -2.207,1.7496 l -0.20117,-0.0233 c -1.09257,-0.12631 -1.87589,-1.11437 -1.74957,-2.20697 0.12628,-1.0926 1.11438,-1.87592 2.20697,-1.7496 z"
         style="fill:#f05268;fill-opacity:1;fill-rule:nonzero;stroke:none"
         transform="scale(0.49792048)" />
      <path
         id="path221"
         d="m 434.57684,430.26974 -0.0265,-0.11734"
         style="fill:none;stroke:#f05268;stroke-width:3.98293;stroke-linecap:round;stroke-linejoin:miter;stroke-miterlimit:10;stroke-dasharray:none;stroke-opacity:1"
         transform="scale(0.49792048)" />
      <path
         id="path222"
         d="m 432.6117,430.60828 c -0.1551,-0.66285 -0.41404,-1.19651 -0.72077,-1.51142 -0.75549,-0.79934 -0.71993,-2.05976 0.0794,-2.81521 0.79934,-0.7555 2.05978,-0.71995 2.81524,0.0794 0.96039,1.01853 1.43897,2.22928 1.70332,3.33551 l -3.8772,0.91172 z"
         style="fill:#f05268;fill-opacity:1;fill-rule:nonzero;stroke:none"
         transform="scale(0.49792048)" />
      <path
         id="path223"
         d="m 431.89093,429.09686 c -0.31766,-0.34512 -0.86118,-0.63318 -1.55936,-0.8031 -1.06805,-0.26256 -1.721,-1.34128 -1.4584,-2.40933 0.2626,-1.06805 1.34131,-1.72101 2.40933,-1.4584 1.18045,0.29087 2.47974,0.8515 3.50308,1.93502 z"
         style="fill:#f05268;fill-opacity:1;fill-rule:nonzero;stroke:none"
         transform="scale(0.49792048)" />
      <path
         id="path224"
         d="m 430.33157,428.29376 c -0.7655,-0.18594 -1.60867,-0.22546 -2.51645,-0.14721 -1.09555,0.0971 -2.0624,-0.71232 -2.15948,-1.8079 -0.0971,-1.09555 0.71234,-2.06237 1.80789,-2.15948 1.20642,-0.10507 2.51637,-0.0717 3.81897,0.24686 z"
         style="fill:#f05268;fill-opacity:1;fill-rule:nonzero;stroke:none"
         transform="scale(0.49792048)" />
      <path
         id="path225"
         d="m 427.81512,428.14655 c -0.98934,0.0877 -1.9934,0.3197 -2.96914,0.66449 -1.03705,0.36636 -2.17472,-0.17734 -2.54108,-1.21439 -0.36636,-1.03705 0.17734,-2.17471 1.2144,-2.54108 1.25548,-0.44293 2.57463,-0.75417 3.94423,-0.8764 z"
         style="fill:#f05268;fill-opacity:1;fill-rule:nonzero;stroke:none"
         transform="scale(0.49792048)" />
      <path
         id="path226"
         d="m 424.84598,428.81104 c -7.10114,2.60031 -11.69745,9.67186 -14.10078,17.19958 -0.3476,1.04346 -1.4753,1.60758 -2.5188,1.25998 -1.04345,-0.34763 -1.60756,-1.47534 -1.25997,-2.5188 2.54901,-7.96857 7.69739,-16.44998 16.55287,-19.69623 z"
         style="fill:#f05268;fill-opacity:1;fill-rule:nonzero;stroke:none"
         transform="scale(0.49792048)" />
      <path
         id="path227"
         d="m 410.7452,446.01062 c -1.31322,4.00055 -2.22588,8.24445 -2.08404,12.2511 0.0497,1.09872 -0.80069,2.02972 -1.89941,2.07941 -1.09875,0.0497 -2.02972,-0.80069 -2.07945,-1.89943 -0.15276,-4.8283 0.87135,-9.33553 2.28413,-13.6899 z"
         style="fill:#f05268;fill-opacity:1;fill-rule:nonzero;stroke:none"
         transform="scale(0.49792048)" />
      <path
         id="path228"
         d="m 408.66116,458.26172 c 0.0925,2.19788 0.6189,4.27975 1.82114,5.49875 0.7599,0.79513 0.7313,2.05575 -0.0638,2.81563 -0.79514,0.75987 -2.05576,0.7313 -2.81566,-0.0639 -2.2504,-2.38664 -2.78258,-5.44757 -2.9205,-8.07054 l 3.97886,-0.17998 z"
         style="fill:#f05268;fill-opacity:1;fill-rule:nonzero;stroke:none"
         transform="scale(0.49792048)" />
      <path
         id="path229"
         d="m 410.4823,463.76047 c 0.84576,0.89663 2.12576,1.49029 3.54974,1.74973 1.08161,0.19952 1.7967,1.23806 1.5972,2.31966 -0.19952,1.08161 -1.23807,1.7967 -2.3197,1.59717 -2.01244,-0.36975 -4.11566,-1.24716 -5.70674,-2.91479 z"
         style="fill:#f05268;fill-opacity:1;fill-rule:nonzero;stroke:none"
         transform="scale(0.49792048)" />
      <path
         id="path230"
         d="m 414.03204,465.5102 c 1.86161,0.34747 3.9614,0.12737 6.0416,-0.36997 1.07019,-0.25376 2.14346,0.40807 2.39722,1.47827 0.25374,1.0702 -0.40809,2.14346 -1.47828,2.39722 -2.39376,0.56186 -4.98308,0.89935 -7.68304,0.41131 z"
         style="fill:#f05268;fill-opacity:1;fill-rule:nonzero;stroke:none"
         transform="scale(0.49792048)" />
      <path
         id="path231"
         d="m 420.07364,465.14023 c 4.1582,-1.02478 8.30344,-2.86093 12.26929,-4.88603 0.97729,-0.50454 2.17857,-0.1213 2.68313,0.856 0.50454,0.9773 0.12131,2.1786 -0.85602,2.68313 -4.1723,2.12079 -8.44234,4.04507 -13.17746,5.22239 z"
         style="fill:#f05268;fill-opacity:1;fill-rule:nonzero;stroke:none"
         transform="scale(0.49792048)" />
      <path
         id="path232"
         d="m 432.34293,460.2542 c 6.64459,-3.50002 13.18933,-7.67455 17.23693,-13.6396 0.61716,-0.91038 1.85547,-1.14808 2.76587,-0.53092 0.91037,0.61716 1.14807,1.85547 0.53092,2.76584 -4.76453,6.9378 -11.79331,11.27248 -18.70661,14.94381 z"
         style="fill:#f05268;fill-opacity:1;fill-rule:nonzero;stroke:none"
         transform="scale(0.49792048)" />
      <path
         id="path233"
         d="m 449.57986,446.6146 c 1.2197,-1.7972 2.21684,-3.75407 2.99764,-5.80408 0.39128,-1.0279 1.54176,-1.54398 2.56966,-1.15272 1.02792,0.3913 1.544,1.54175 1.15271,2.56968 -0.8819,2.31579 -2.01822,4.55169 -3.42322,6.62204 z"
         style="fill:#f05268;fill-opacity:1;fill-rule:nonzero;stroke:none"
         transform="scale(0.49792048)" />
      <path
         id="path234"
         d="m 452.5775,440.81052 c 1.04088,-2.81672 1.98146,-6.27612 1.26652,-8.33396 -0.36672,-1.03689 0.17655,-2.1748 1.21344,-2.54153 1.03694,-0.36676 2.17481,0.17651 2.54157,1.21344 1.19697,4.46069 -0.22177,7.73419 -1.29916,11.07901 z"
         style="fill:#f05268;fill-opacity:1;fill-rule:nonzero;stroke:none"
         transform="scale(0.49792048)" />
      <path
         id="path235"
         d="m 453.84402,432.47656 c -0.34442,-1.0137 -1.24642,-2.00056 -2.40527,-2.84116 -0.88827,-0.64855 -1.08261,-1.89443 -0.43402,-2.7827 0.64857,-0.88828 1.89444,-1.0826 2.78272,-0.43403 1.49375,1.10037 3.04333,2.58069 3.81158,4.7298 z"
         style="fill:#f05268;fill-opacity:1;fill-rule:nonzero;stroke:none"
         transform="scale(0.49792048)" />
      <path
         id="path236"
         d="m 451.43875,429.6354 c -1.75351,-1.2673 -3.96055,-2.24203 -6.18603,-3.04403 -1.03617,-0.36877 -1.57724,-1.50772 -1.20847,-2.54392 0.36877,-1.03615 1.50772,-1.5772 2.54392,-1.20845 2.45903,0.89708 4.88678,1.9259 7.19928,3.57967 z"
         style="fill:#f05268;fill-opacity:1;fill-rule:nonzero;stroke:none"
         transform="scale(0.49792048)" />
      <path
         id="path237"
         d="m 445.25272,426.59137 c -3.55048,-1.25189 -8.19895,-2.35065 -10.32898,-0.94847 -0.90164,0.6299 -2.14319,0.40962 -2.77307,-0.49202 -0.62989,-0.90161 -0.40957,-2.14316 0.49206,-2.77304 5.50754,-2.78916 9.79307,-0.67834 13.94544,0.46116 z"
         style="fill:#f05268;fill-opacity:1;fill-rule:nonzero;stroke:none"
         transform="scale(0.49792048)" />
      <path
         id="path238"
         d="m 434.92374,425.6429 c -0.33738,0.23533 -0.63602,0.56 -0.90448,0.98918 -0.5828,0.93274 -1.8114,1.21642 -2.74414,0.63362 -0.93277,-0.5828 -1.21642,-1.81142 -0.63364,-2.74415 0.48852,-0.78638 1.15872,-1.55887 2.00125,-2.14371 0.90161,-0.62988 2.14317,-0.40958 2.77304,0.49203 0.62988,0.90163 0.40958,2.14316 -0.49203,2.77303 z"
         style="fill:#f05268;fill-opacity:1;fill-rule:nonzero;stroke:none"
         transform="scale(0.49792048)" />
      <path
         id="path239"
         d="m 486.14807,431.2967 c 0.42816,-0.5613 0.50437,-3.06736 0.92719,-1.24128 -0.6745,-0.86874 -0.51706,-2.11978 0.35171,-2.79432 0.86875,-0.6745 2.11981,-0.51702 2.79431,0.35172 1.01914,3.94864 -0.18258,3.54825 -0.32452,5.02964 -0.37164,1.03518 -1.51206,1.57309 -2.54724,1.20147 -1.03516,-0.37163 -1.57309,-1.51205 -1.20145,-2.54723 z"
         style="fill:#f05268;fill-opacity:1;fill-rule:nonzero;stroke:none"
         transform="scale(0.49792048)" />
      <path
         id="path240"
         d="m 487.23367,430.27948 c -0.90823,-0.62054 -1.14135,-1.85992 -0.52067,-2.76804 0.62056,-0.90792 1.85957,-1.14099 2.76762,-0.5206 l 0.29111,0.19898 c 0.90823,0.62054 1.14137,1.85992 0.52067,2.76804 -0.62056,0.90792 -1.85957,1.14099 -2.76762,0.52059 z"
         style="fill:#f05268;fill-opacity:1;fill-rule:nonzero;stroke:none"
         transform="scale(0.49792048)" />
      <path
         id="path241"
         d="m 487.53485,430.48917 c -1.07162,-0.2475 -1.73971,-1.31684 -1.49228,-2.38847 0.24747,-1.07168 1.31687,-1.73983 2.38855,-1.49233 l 0.37415,0.0864 c 1.07163,0.2475 1.73971,1.31681 1.49228,2.38844 -0.24747,1.0717 -1.31687,1.73986 -2.38855,1.49236 z"
         style="fill:#f05268;fill-opacity:1;fill-rule:nonzero;stroke:none"
         transform="scale(0.49792048)" />
      <path
         id="path242"
         d="m 487.72403,430.52332 c -0.80866,-0.0733 -2.40203,0.19616 -3.67017,0.52628 -1.0654,0.27318 -2.15054,-0.36903 -2.42373,-1.4344 -0.2732,-1.0654 0.36902,-2.15054 1.43441,-2.42373 1.62269,-0.36701 2.99549,-0.75495 5.17736,-0.61725 z"
         style="fill:#f05268;fill-opacity:1;fill-rule:nonzero;stroke:none"
         transform="scale(0.49792048)" />
      <path
         id="path243"
         d="m 484.05386,431.0496 c -1.71133,0.43923 -3.33929,1.05956 -4.8226,1.91076 -0.95476,0.54599 -2.17138,0.21464 -2.71736,-0.74011 -0.54604,-0.95478 -0.21468,-2.17139 0.7401,-2.71738 1.83697,-1.05432 3.81912,-1.80103 5.81054,-2.3114 z"
         style="fill:#f05268;fill-opacity:1;fill-rule:nonzero;stroke:none"
         transform="scale(0.49792048)" />
      <path
         id="path244"
         d="m 479.23126,432.96036 c -6.94536,4.13224 -10.90014,12.57104 -13.30359,20.67557 -0.30207,1.05755 -1.40427,1.67001 -2.46182,1.36795 -1.05759,-0.30208 -1.67005,-1.40428 -1.36798,-2.46183 2.64725,-8.62448 6.5477,-17.75241 15.15613,-23.03918 z"
         style="fill:#f05268;fill-opacity:1;fill-rule:nonzero;stroke:none"
         transform="scale(0.49792048)" />
      <path
         id="path245"
         d="m 465.92767,453.63593 c -1.39331,5.3265 -3.0292,12.43093 -0.81875,15.91657 0.69812,0.84987 0.5751,2.1048 -0.27478,2.8029 -0.84989,0.69813 -2.10477,0.5751 -2.80292,-0.27477 -3.90852,-7.48108 -1.12662,-13.41156 0.0666,-19.53858 l 3.8298,1.09388 z"
         style="fill:#f05268;fill-opacity:1;fill-rule:nonzero;stroke:none"
         transform="scale(0.49792048)" />
      <path
         id="path246"
         d="m 465.10892,469.5525 c 0.51593,0.63848 1.35653,1.13384 2.39096,1.4639 1.047,0.33687 1.62265,1.45873 1.28576,2.50573 -0.33684,1.04699 -1.45871,1.62265 -2.5057,1.28577 -1.47806,-0.4741 -3.0741,-1.29328 -4.24872,-2.72727 -0.69812,-0.84989 -0.5751,-2.1048 0.27478,-2.80293 0.84988,-0.6981 2.1048,-0.5751 2.80292,0.2748 z"
         style="fill:#f05268;fill-opacity:1;fill-rule:nonzero;stroke:none"
         transform="scale(0.49792048)" />
      <path
         id="path247"
         d="m 467.49988,471.0164 c 1.18632,0.38066 2.56335,0.5478 3.94726,0.58 1.09958,0.0237 1.97184,0.93424 1.94818,2.03382 -0.0237,1.09961 -0.93422,1.97183 -2.03382,1.94821 -1.6636,-0.0438 -3.35314,-0.22351 -5.08156,-0.77053 z"
         style="fill:#f05268;fill-opacity:1;fill-rule:nonzero;stroke:none"
         transform="scale(0.49792048)" />
      <path
         id="path248"
         d="m 471.44714,471.5964 c 7.50534,0.112 14.93622,-3.20233 21.88272,-6.87573 0.96759,-0.52289 2.17588,-0.16237 2.69877,0.80523 0.52287,0.96763 0.16237,2.1759 -0.80523,2.6988 -7.20543,3.7721 -15.02903,7.43308 -23.8619,7.35373 l 0.0856,-3.98203 z"
         style="fill:#f05268;fill-opacity:1;fill-rule:nonzero;stroke:none"
         transform="scale(0.49792048)" />
      <path
         id="path249"
         d="m 493.32986,464.72067 c 3.34366,-1.80923 6.5875,-3.81082 9.64029,-6.03087 0.88875,-0.64796 2.13445,-0.45274 2.78241,0.436 0.64794,0.88873 0.45276,2.13445 -0.43596,2.7824 -3.22837,2.34717 -6.6087,4.43048 -10.0932,6.3165 z"
         style="fill:#f05268;fill-opacity:1;fill-rule:nonzero;stroke:none"
         transform="scale(0.49792048)" />
      <path
         id="path250"
         d="m 510.27136,429.42548 c 4.44458,1.1022 5.88734,3.82718 8.15684,5.7727 0.7719,0.78352 0.7625,2.0444 -0.021,2.81629 -0.78351,0.77188 -2.04437,0.76248 -2.81627,-0.021 -1.98885,-1.9585 -4.29488,-4.47388 -5.81823,-4.61636 -1.09121,-0.13773 -1.86417,-1.13395 -1.72647,-2.22516 0.13773,-1.09119 1.13395,-1.86414 2.22516,-1.72644 z"
         style="fill:#f05268;fill-opacity:1;fill-rule:nonzero;stroke:none"
         transform="scale(0.49792048)" />
      <path
         id="path251"
         d="m 518.4282,435.19818 c 1.35885,1.37958 2.7005,2.79252 3.99844,4.25449 0.73046,0.82223 0.65606,2.08096 -0.1662,2.81143 -0.82221,0.7305 -2.08094,0.6561 -2.8114,-0.16617 -1.24114,-1.39803 -2.53344,-2.75958 -3.85814,-4.10449 z"
         style="fill:#f05268;fill-opacity:1;fill-rule:nonzero;stroke:none"
         transform="scale(0.49792048)" />
      <path
         id="path252"
         d="m 522.42664,439.45267 c 2.77676,3.12076 5.2854,6.40265 7.77726,9.62668 0.67195,0.87072 0.5108,2.12133 -0.3599,2.79327 -0.87073,0.67194 -2.12134,0.5108 -2.7933,-0.35992 -2.49674,-3.23172 -4.95115,-6.4373 -7.60166,-9.41477 z"
         style="fill:#f05268;fill-opacity:1;fill-rule:nonzero;stroke:none"
         transform="scale(0.49792048)" />
      <path
         id="path253"
         d="m 530.2039,449.07935 c 4.7265,6.02875 9.3382,12.29049 14.4995,17.65345 0.7708,0.78463 0.75955,2.0455 -0.0251,2.81624 -0.78464,0.77076 -2.04554,0.75949 -2.81628,-0.0251 C 536.3453,463.7747 531.8216,457.58817 527.0507,451.5127 Z"
         style="fill:#f05268;fill-opacity:1;fill-rule:nonzero;stroke:none"
         transform="scale(0.49792048)" />
      <path
         id="path254"
         d="m 544.7034,466.7328 c 1.4953,1.52544 3.08035,2.97493 4.71756,4.4115 0.82674,0.72542 0.90884,1.9837 0.18344,2.81038 -0.7255,0.82669 -1.98373,0.90878 -2.81045,0.18338 -1.67365,-1.4685 -3.3429,-2.99316 -4.93189,-4.61413 z"
         style="fill:#f05268;fill-opacity:1;fill-rule:nonzero;stroke:none"
         transform="scale(0.49792048)" />
      <path
         id="path255"
         d="m 549.42096,471.1443 c 2.05104,1.76155 4.0816,3.6265 6.11121,4.5139 1.00769,0.44074 1.46733,1.6149 1.02663,2.6226 -0.44076,1.00768 -1.6149,1.4673 -2.6226,1.0266 -3.0153,-1.3864 -5.0266,-3.39245 -7.14225,-5.16934 z"
         style="fill:#f05268;fill-opacity:1;fill-rule:nonzero;stroke:none"
         transform="scale(0.49792048)" />
      <path
         id="path256"
         d="m 555.7729,475.75958 c 1.01323,0.42765 1.488,1.59568 1.0605,2.60898 -0.42764,1.0134 -1.59585,1.48822 -2.60916,1.06054 l -0.2644,-0.11153 c -1.01324,-0.42765 -1.48804,-1.59567 -1.06049,-2.60897 0.42762,-1.0134 1.59585,-1.48823 2.60919,-1.06056 z"
         style="fill:#f05268;fill-opacity:1;fill-rule:nonzero;stroke:none"
         transform="scale(0.49792048)" />
      <path
         id="path257"
         d="m 552.81537,436.5469 c -1.09837,-0.0574 -1.94227,-0.99426 -1.88487,-2.09262 0.0573,-1.09835 0.99424,-1.94226 2.0926,-1.88488 l 0.22037,0.0115 c 1.09839,0.0574 1.94223,0.99426 1.88489,2.09262 -0.0573,1.09836 -0.99426,1.94226 -2.09259,1.88488 z"
         style="fill:#f05268;fill-opacity:1;fill-rule:nonzero;stroke:none"
         transform="scale(0.49792048)" />
      <path
         id="path258"
         d="m 553.16406,436.5477 c -1.06921,0.25806 -2.14516,-0.39954 -2.40316,-1.46875 -0.258,-1.06912 0.39956,-2.14499 1.46865,-2.40302 l 0.22242,-0.0537 c 1.06923,-0.25805 2.14513,0.39955 2.40313,1.46875 0.258,1.06913 -0.39953,2.145 -1.4686,2.40302 z"
         style="fill:#f05268;fill-opacity:1;fill-rule:nonzero;stroke:none"
         transform="scale(0.49792048)" />
      <path
         id="path259"
         d="m 553.3395,436.49673 c -0.7608,0.3743 -2.67934,2.76367 -4.04977,4.48163 -0.68843,0.85779 -1.94183,0.99509 -2.79963,0.3067 -0.8578,-0.68841 -0.9951,-1.94183 -0.3067,-2.79962 1.73036,-1.87064 2.41145,-3.76858 5.87074,-5.75854 z"
         style="fill:#f05268;fill-opacity:1;fill-rule:nonzero;stroke:none"
         transform="scale(0.49792048)" />
      <path
         id="path260"
         d="m 549.28973,440.97836 c -0.28668,0.35724 -0.5744,0.71564 -0.86267,1.07361 -0.68976,0.85669 -1.94342,0.99201 -2.80011,0.30223 -0.85669,-0.68977 -0.992,-1.9434 -0.30225,-2.8001 0.2863,-0.3555 0.572,-0.71142 0.8587,-1.06866 z"
         style="fill:#f05268;fill-opacity:1;fill-rule:nonzero;stroke:none"
         transform="scale(0.49792048)" />
      <path
         id="path261"
         d="m 548.42706,442.05197 c -0.42962,0.53369 -0.86046,1.06641 -1.28979,1.59699 -0.69184,0.85507 -1.9458,0.98739 -2.80087,0.29559 -0.855,-0.6918 -0.98734,-1.94577 -0.29557,-2.80081 0.42957,-0.53084 0.8573,-1.05976 1.28387,-1.58964 z"
         style="fill:#f05268;fill-opacity:1;fill-rule:nonzero;stroke:none"
         transform="scale(0.49792048)" />
      <path
         id="path262"
         d="m 547.13727,443.64896 c -0.90381,1.11651 -1.79883,2.22484 -2.68067,3.34219 -0.6817,0.86313 -1.934,1.01025 -2.7972,0.32858 -0.8631,-0.68167 -1.01017,-1.93399 -0.3285,-2.79715 0.8974,-1.13705 1.8068,-2.26312 2.70993,-3.37884 z"
         style="fill:#f05268;fill-opacity:1;fill-rule:nonzero;stroke:none"
         transform="scale(0.49792048)" />
      <path
         id="path263"
         d="m 544.4566,446.99115 c -1.09893,1.39023 -2.17956,2.79755 -3.2671,4.21747 -0.66893,0.87301 -1.919,1.03842 -2.792,0.36944 -0.873,-0.66896 -1.0384,-1.919 -0.3694,-2.79202 1.0868,-1.41907 2.1841,-2.8482 3.3028,-4.26346 z"
         style="fill:#f05268;fill-opacity:1;fill-rule:nonzero;stroke:none"
         transform="scale(0.49792048)" />
      <path
         id="path264"
         d="m 541.1895,451.20862 c -1.22905,1.60534 -2.4718,3.22125 -3.73863,4.81845 -0.68307,0.86206 -1.93557,1.00713 -2.79761,0.3241 -0.86206,-0.68305 -1.00716,-1.93561 -0.3241,-2.79764 1.2464,-1.57153 2.46944,-3.16163 3.69894,-4.76749 z"
         style="fill:#f05268;fill-opacity:1;fill-rule:nonzero;stroke:none"
         transform="scale(0.49792048)" />
      <path
         id="path265"
         d="m 537.45087,456.02707 c -1.70067,2.14758 -3.43637,4.2583 -5.17687,6.35281 -0.70314,0.8458 -1.95875,0.96146 -2.8045,0.25836 -0.8458,-0.70309 -0.96144,-1.95871 -0.2584,-2.80447 1.7314,-2.08343 3.4462,-4.16907 5.11806,-6.28024 z"
         style="fill:#f05268;fill-opacity:1;fill-rule:nonzero;stroke:none"
         transform="scale(0.49792048)" />
      <path
         id="path266"
         d="m 532.274,462.37988 c -1.2864,1.54632 -2.5805,3.09302 -3.90425,4.62708 -0.71845,0.83279 -1.97595,0.92547 -2.80871,0.20704 -0.83284,-0.71843 -0.92548,-1.97596 -0.20704,-2.80873 1.29725,-1.50335 2.5778,-3.0336 3.8571,-4.5715 z"
         style="fill:#f05268;fill-opacity:1;fill-rule:nonzero;stroke:none"
         transform="scale(0.49792048)" />
      <path
         id="path267"
         d="m 528.36975,467.00696 c -0.71615,0.83056 -1.43951,1.65444 -2.15759,2.46997 -0.72656,0.82567 -1.98493,0.90597 -2.81061,0.17937 -0.82568,-0.72658 -0.90601,-1.98494 -0.17938,-2.81063 0.71813,-0.81567 1.42873,-1.62497 2.13183,-2.4404 z"
         style="fill:#f05268;fill-opacity:1;fill-rule:nonzero;stroke:none"
         transform="scale(0.49792048)" />
      <path
         id="path268"
         d="m 526.21216,469.47693 c -1.46956,1.6665 -2.89612,3.30007 -4.23136,4.99947 -0.6809,0.86375 -1.9331,1.012 -2.79684,0.33113 -0.86376,-0.68088 -1.01202,-1.93305 -0.33112,-2.79683 1.40772,-1.79168 2.90336,-3.5025 4.36933,-5.16503 z"
         style="fill:#f05268;fill-opacity:1;fill-rule:nonzero;stroke:none"
         transform="scale(0.49792048)" />
      <path
         id="path269"
         d="m 521.9808,474.4764 c -0.8387,1.06172 -1.6403,2.1471 -2.4561,3.26914 -0.6479,0.88876 -1.89366,1.08399 -2.7824,0.43606 -0.8887,-0.6479 -1.084,-1.89364 -0.436,-2.7824 0.81656,-1.12323 1.66416,-2.2717 2.54654,-3.3885 z"
         style="fill:#f05268;fill-opacity:1;fill-rule:nonzero;stroke:none"
         transform="scale(0.49792048)" />
      <path
         id="path270"
         d="m 519.5247,477.74554 c -0.4541,0.62189 -0.91014,1.25166 -1.4085,1.89783 -0.6729,0.87 -1.9237,1.02976 -2.7936,0.35683 -0.87,-0.6729 -1.0298,-1.92366 -0.3569,-2.79363 0.4411,-0.57157 0.88794,-1.18713 1.3406,-1.80737 z"
         style="fill:#f05268;fill-opacity:1;fill-rule:nonzero;stroke:none"
         transform="scale(0.49792048)" />
      <path
         id="path271"
         d="m 589.178,441.7552 c -0.0529,-0.1894 -0.2109,-0.53633 -0.4049,-0.93812 -0.4741,-0.99246 -0.0539,-2.18131 0.9386,-2.65538 0.9924,-0.47402 2.18124,-0.0538 2.6553,0.93867 0.1881,0.40409 0.4276,0.86148 0.63154,1.52913 0.31086,1.055 -0.29244,2.16225 -1.34744,2.4731 -1.055,0.31085 -2.16227,-0.29242 -2.4731,-1.3474 z"
         style="fill:#7289ff;fill-opacity:1;fill-rule:nonzero;stroke:none"
         transform="scale(0.49792048)" />
      <path
         id="path272"
         d="m 588.7731,440.81708 c -0.1765,-0.36756 -0.3691,-0.77881 -0.54275,-1.18988 -0.42939,-1.01258 0.0433,-2.18152 1.05585,-2.61096 1.01257,-0.42942 2.1815,0.0433 2.61096,1.05584 0.14288,0.33774 0.29464,0.66302 0.46984,1.02829 z"
         style="fill:#7289ff;fill-opacity:1;fill-rule:nonzero;stroke:none"
         transform="scale(0.49792048)" />
      <path
         id="path273"
         d="m 588.23035,439.6272 c -0.84695,-2.01255 -1.38955,-4.07904 -1.74825,-6.15232 -0.1868,-1.08386 0.54036,-2.11398 1.6242,-2.30078 1.08395,-0.18683 2.11404,0.54038 2.30087,1.62424 0.31567,1.83376 0.79613,3.62766 1.48999,5.27374 z"
         style="fill:#7289ff;fill-opacity:1;fill-rule:nonzero;stroke:none"
         transform="scale(0.49792048)" />
      <path
         id="path274"
         d="m 586.4821,433.47488 c -0.42955,-2.60034 -0.67033,-5.27768 -0.0555,-8.17172 0.24516,-1.07216 1.31306,-1.74261 2.38526,-1.49746 1.0722,0.24514 1.7426,1.31307 1.4975,2.38525 -0.4381,1.97095 -0.2958,4.33923 0.0978,6.60739 l -3.92507,0.67654 z"
         style="fill:#7289ff;fill-opacity:1;fill-rule:nonzero;stroke:none"
         transform="scale(0.49792048)" />
      <path
         id="path275"
         d="m 586.42664,425.30316 c 0.21301,-0.9317 0.52386,-1.82739 0.91056,-2.67959 0.4547,-1.00147 1.63515,-1.44474 2.6366,-0.99003 1.0015,0.45469 1.4447,1.63514 0.99,2.6366 -0.2836,0.62503 -0.506,1.27051 -0.6544,1.92081 z"
         style="fill:#7289ff;fill-opacity:1;fill-rule:nonzero;stroke:none"
         transform="scale(0.49792048)" />
      <path
         id="path276"
         d="m 587.3372,422.62357 c 0.6797,-1.48923 1.61116,-2.92347 2.8881,-4.11744 0.8033,-0.75125 2.0635,-0.70901 2.81474,0.0943 0.75126,0.80332 0.70906,2.06354 -0.0943,2.81479 -0.81324,0.75653 -1.4801,1.75263 -1.98194,2.85492 z"
         style="fill:#7289ff;fill-opacity:1;fill-rule:nonzero;stroke:none"
         transform="scale(0.49792048)" />
      <path
         id="path277"
         d="m 590.2253,418.50613 c 1.93614,-1.79675 4.2469,-2.72216 6.5,-3.32455 1.0649,-0.27493 2.1511,0.36548 2.426,1.43042 0.275,1.06494 -0.3655,2.15112 -1.4304,2.42606 -1.83705,0.48044 -3.58327,1.24697 -4.77516,2.37716 z"
         style="fill:#7289ff;fill-opacity:1;fill-rule:nonzero;stroke:none"
         transform="scale(0.49792048)" />
      <path
         id="path278"
         d="m 596.7253,415.18158 c 3.68626,-0.90208 7.8664,-1.05093 11.6268,1.21402 0.9309,0.58575 1.2107,1.81525 0.62495,2.74615 -0.58575,0.93091 -1.81525,1.2107 -2.74615,0.62495 -2.236,-1.42283 -5.571,-1.49476 -8.51,-0.72864 z"
         style="fill:#7289ff;fill-opacity:1;fill-rule:nonzero;stroke:none"
         transform="scale(0.49792048)" />
      <path
         id="path279"
         d="m 608.3521,416.3956 c 5.27363,3.77353 6.50233,9.58166 6.9543,14.87988 0.0594,1.09827 -0.7828,2.03672 -1.88105,2.09607 -1.09825,0.0594 -2.03665,-0.7828 -2.09605,-1.88105 -0.2447,-4.49877 -1.8343,-9.61358 -5.0984,-11.7238 z"
         style="fill:#7289ff;fill-opacity:1;fill-rule:nonzero;stroke:none"
         transform="scale(0.49792048)" />
      <path
         id="path280"
         d="m 615.3064,431.27548 c 0.0639,1.17905 0.0555,2.3516 -0.029,3.53195 -0.0781,1.09707 -1.0308,1.9231 -2.1279,1.84494 -1.0971,-0.0781 -1.9231,-1.03085 -1.84493,-2.12793 0.0724,-1.00421 0.0798,-2.02609 0.0247,-3.03394 l 3.9771,-0.21502 z"
         style="fill:#7289ff;fill-opacity:1;fill-rule:nonzero;stroke:none"
         transform="scale(0.49792048)" />
      <path
         id="path281"
         d="m 615.2774,434.80743 c -0.66534,8.06057 -4.4783,14.85987 -8.2374,21.26081 -0.5719,0.93948 -1.79714,1.23746 -2.7366,0.66559 -0.93945,-0.5719 -1.2375,-1.79713 -0.6656,-2.73661 3.6557,-6.15588 7.16225,-12.70346 7.66677,-19.47278 z"
         style="fill:#7289ff;fill-opacity:1;fill-rule:nonzero;stroke:none"
         transform="scale(0.49792048)" />
      <path
         id="path282"
         d="m 607.04,456.06824 c -1.4774,2.42392 -3.0513,4.80493 -4.7769,7.09676 -0.66135,0.8788 -1.9099,1.05503 -2.7887,0.3937 -0.87876,-0.6614 -1.055,-1.90996 -0.39365,-2.78874 1.6283,-2.16223 3.13348,-4.43689 4.55705,-6.77274 z"
         style="fill:#7289ff;fill-opacity:1;fill-rule:nonzero;stroke:none"
         transform="scale(0.49792048)" />
      <path
         id="path283"
         d="m 602.2631,463.165 c -2.002,2.6701 -4.19706,5.1551 -6.38737,7.56437 -0.74017,0.81351 -1.99973,0.87296 -2.81323,0.13275 -0.81354,-0.74017 -0.8729,-1.99972 -0.13275,-2.81322 2.16705,-2.38334 4.26485,-4.76283 6.151,-7.27894 z"
         style="fill:#7289ff;fill-opacity:1;fill-rule:nonzero;stroke:none"
         transform="scale(0.49792048)" />
      <path
         id="path284"
         d="m 595.87573,470.72937 c -1.66186,1.81247 -3.33227,3.65857 -5.25533,5.39503 -0.81706,0.73626 -2.0763,0.67074 -2.81254,-0.14634 -0.7362,-0.81711 -0.67071,-2.07633 0.14634,-2.81256 1.7117,-1.5418 3.3345,-3.32407 4.97555,-5.1166 z"
         style="fill:#7289ff;fill-opacity:1;fill-rule:nonzero;stroke:none"
         transform="scale(0.49792048)" />
      <path
         id="path285"
         d="m 590.6204,476.1244 c -0.48905,0.44164 -0.9967,0.87307 -1.4804,1.27666 -0.84337,0.70594 -2.09935,0.59451 -2.80534,-0.2489 -0.70596,-0.84341 -0.59446,-2.0994 0.2489,-2.80533 0.47974,-0.40039 0.92828,-0.78207 1.37064,-1.18133 z"
         style="fill:#7289ff;fill-opacity:1;fill-rule:nonzero;stroke:none"
         transform="scale(0.49792048)" />
      <path
         id="path286"
         d="m 589.14,477.40106 c -0.33586,0.28084 -0.7086,0.59299 -0.8546,0.74714 -0.75867,0.79632 -2.0192,0.82684 -2.81555,0.0682 -0.79625,-0.75867 -0.82678,-2.01923 -0.0681,-2.81552 0.48897,-0.49415 0.82624,-0.74925 1.18183,-1.05402 l 2.55644,3.05423 z"
         style="fill:#7289ff;fill-opacity:1;fill-rule:nonzero;stroke:none"
         transform="scale(0.49792048)" />
      <path
         id="path287"
         d="m 588.3389,478.19717 c -0.522,0.96808 -1.73,1.32965 -2.6981,0.80759 -0.968,-0.52203 -1.3296,-1.72998 -0.80755,-2.69803 l 0.25745,-0.47743 c 0.52203,-0.9681 1.73004,-1.32967 2.6981,-0.8076 0.9681,0.52203 1.3296,1.72998 0.80764,2.69803 z"
         style="fill:#7289ff;fill-opacity:1;fill-rule:nonzero;stroke:none"
         transform="scale(0.49792048)" />
      <path
         id="path288"
         d="m 586.5861,477.25195 0.0622,0.0827"
         style="fill:none;stroke:#7289ff;stroke-width:3.98293;stroke-linecap:round;stroke-linejoin:miter;stroke-miterlimit:10;stroke-dasharray:none;stroke-opacity:1"
         transform="scale(0.49792048)" />
      <path
         id="path289"
         d="m 586.6483,477.3347 0.0968,0.0519"
         style="fill:none;stroke:#7289ff;stroke-width:3.98293;stroke-linecap:round;stroke-linejoin:miter;stroke-miterlimit:10;stroke-dasharray:none;stroke-opacity:1"
         transform="scale(0.49792048)" />
      <path
         id="path290"
         d="m 587.4657,475.53006 c -0.3513,-0.0629 0.87384,-9.8e-4 1.44617,-0.0617 1.13193,0.0116 2.04023,0.93857 2.02868,2.07053 -0.0116,1.13196 -0.9386,2.04025 -2.07055,2.02869 -0.85914,-0.111 -1.0917,0.0684 -2.8455,-0.32447 l 1.4412,-3.71304 z"
         style="fill:#7289ff;fill-opacity:1;fill-rule:nonzero;stroke:none"
         transform="scale(0.49792048)" />
      <path
         id="path291"
         d="m 588.91187,475.46835 c 0.63519,-0.0248 1.28573,-0.0433 1.93433,-0.0514 1.177,0.0289 2.10766,1.00643 2.0788,2.18337 -0.0289,1.17697 -1.0065,2.10767 -2.1834,2.07877 -0.61983,-0.0398 -1.23806,-0.0745 -1.8716,-0.11157 l 0.0419,-4.09922 z"
         style="fill:#7289ff;fill-opacity:1;fill-rule:nonzero;stroke:none"
         transform="scale(0.49792048)" />
      <path
         id="path292"
         d="m 590.8462,475.417 c 1.5128,-0.0191 2.9964,0.0127 4.4677,0.0428 1.2498,0.0566 2.21704,1.11576 2.1604,2.36556 -0.0566,1.24983 -1.1157,2.21705 -2.36554,2.1604 -1.47302,-0.10055 -2.93341,-0.21544 -4.36716,-0.30666 l 0.1046,-4.26214 z"
         style="fill:#7289ff;fill-opacity:1;fill-rule:nonzero;stroke:none"
         transform="scale(0.49792048)" />
      <path
         id="path293"
         d="m 595.3139,475.45984 c 1.4328,0.0311 2.87635,0.0685 4.3256,0.12753 1.2948,0.072 2.2861,1.17999 2.2141,2.47476 -0.072,1.2948 -1.17995,2.28605 -2.47475,2.21405 -1.41495,-0.10108 -2.83725,-0.19125 -4.27009,-0.29038 z"
         style="fill:#7289ff;fill-opacity:1;fill-rule:nonzero;stroke:none"
         transform="scale(0.49792048)" />
      <path
         id="path294"
         d="m 599.6395,475.58737 c 1.1969,0.0482 2.3913,0.11063 3.5746,0.17573 1.3188,0.0859 2.3181,1.22466 2.2322,2.5434 -0.0859,1.31874 -1.2246,2.31813 -2.5434,2.2322 -1.1824,-0.0894 -2.3538,-0.17963 -3.52405,-0.26252 z"
         style="fill:#7289ff;fill-opacity:1;fill-rule:nonzero;stroke:none"
         transform="scale(0.49792048)" />
      <path
         id="path295"
         d="m 603.2141,475.7631 c 1.81855,0.10082 3.6119,0.20065 5.4065,0.2717 1.3425,0.0605 2.38166,1.19777 2.3212,2.5402 -0.0605,1.34245 -1.1978,2.3817 -2.54025,2.3212 -1.84302,-0.0907 -3.6839,-0.2197 -5.49865,-0.3575 z"
         style="fill:#7289ff;fill-opacity:1;fill-rule:nonzero;stroke:none"
         transform="scale(0.49792048)" />
      <path
         id="path296"
         d="m 608.6206,476.0348 c 3.3964,0.13848 6.8042,0.18468 10.2475,0.23467 1.3434,0.0133 2.4216,1.11313 2.40827,2.45648 -0.0134,1.34335 -1.11317,2.42157 -2.45647,2.40825 -3.447,-0.0125 -6.9307,-0.0632 -10.41835,-0.238 z"
         style="fill:#7289ff;fill-opacity:1;fill-rule:nonzero;stroke:none"
         transform="scale(0.49792048)" />
      <path
         id="path297"
         d="m 618.8681,476.26947 c 1.293,0.02 2.593,0.044 3.8946,0.0815 1.32446,0.0216 2.3806,1.11282 2.359,2.43729 -0.0216,1.32449 -1.11285,2.38063 -2.4373,2.35903 -1.2846,-0.005 -2.57106,-0.008 -3.8645,-0.0131 l 0.0482,-4.86473 z"
         style="fill:#7289ff;fill-opacity:1;fill-rule:nonzero;stroke:none"
         transform="scale(0.49792048)" />
      <path
         id="path298"
         d="m 622.7627,476.35098 c 0.9919,0.0283 1.9838,0.0647 2.96887,0.10692 1.29767,0.0284 2.32663,1.10344 2.29828,2.40117 -0.0285,1.29773 -1.10345,2.32669 -2.40119,2.29828 -0.98596,-0.001 -1.96496,-0.007 -2.94426,-0.0101 l 0.0783,-4.79632 z"
         style="fill:#7289ff;fill-opacity:1;fill-rule:nonzero;stroke:none"
         transform="scale(0.49792048)" />
      <path
         id="path299"
         d="m 625.73157,476.4579 c 2.48218,0.1094 4.88923,0.23515 7.24163,0.29402 1.1084,-0.076 2.06855,0.7609 2.14454,1.8693 0.0761,1.10838 -0.76084,2.06851 -1.86924,2.14453 -2.59475,0.4017 -5.1493,0.38405 -7.61984,0.3916 z"
         style="fill:#7289ff;fill-opacity:1;fill-rule:nonzero;stroke:none"
         transform="scale(0.49792048)" />
      <path
         id="path300"
         d="m 632.9732,476.75192 c 0.99335,-0.0297 1.9806,-0.16482 3.01826,-0.28235 1.09224,-0.12947 2.08258,0.65097 2.21204,1.7432 0.12945,1.09219 -0.651,2.08258 -1.7432,2.21203 -1.03464,0.13068 -2.1222,0.23078 -3.2118,0.34095 z"
         style="fill:#7289ff;fill-opacity:1;fill-rule:nonzero;stroke:none"
         transform="scale(0.49792048)" />
      <path
         id="path301"
         d="m 635.99146,476.46957 c 0.6864,-0.0814 1.39734,-0.16555 2.12174,-0.22992 1.0955,-0.0979 2.06295,0.71075 2.1609,1.80622 0.0979,1.09549 -0.71075,2.06296 -1.8062,2.16093 -0.6548,0.0581 -1.3191,0.13625 -2.0076,0.218 z"
         style="fill:#7289ff;fill-opacity:1;fill-rule:nonzero;stroke:none"
         transform="scale(0.49792048)" />
      <path
         id="path302"
         d="m 638.1132,476.23965 c 0.3233,-0.029 0.6496,-0.0539 0.9602,-0.0765 1.09695,-0.0803 2.05123,0.74389 2.1315,1.84082 0.0803,1.09695 -0.7439,2.05124 -1.8408,2.1315 -0.3086,0.0224 -0.6013,0.0448 -0.8962,0.0713 l -0.3547,-3.96715 z"
         style="fill:#7289ff;fill-opacity:1;fill-rule:nonzero;stroke:none"
         transform="scale(0.49792048)" />
      <path
         id="path303"
         d="m 639.21875,478.14935 0.0439,-0.003"
         style="fill:none;stroke:#7289ff;stroke-width:3.98293;stroke-linecap:round;stroke-linejoin:miter;stroke-miterlimit:10;stroke-dasharray:none;stroke-opacity:1"
         transform="scale(0.49792048)" />
      <path
         id="path304"
         d="m 657.1798,443.0692 c -0.0948,-1.09575 0.71656,-2.0609 1.8123,-2.15575 1.0958,-0.0949 2.06094,0.71655 2.1558,1.81232 l 0.0197,0.22745 c 0.0948,1.09576 -0.71655,2.06094 -1.8123,2.15576 -1.0958,0.0949 -2.061,-0.71655 -2.15584,-1.81232 l -0.0197,-0.22746 z"
         style="fill:#6cdd8f;fill-opacity:1;fill-rule:nonzero;stroke:none"
         transform="scale(0.49792048)" />
      <path
         id="path305"
         d="m 657.13,442.42984 c -0.0853,-1.09654 0.73456,-2.05457 1.8311,-2.13984 1.0966,-0.0853 2.0546,0.73457 2.13985,1.83112 l 0.0484,0.62201 c 0.0852,1.09653 -0.73455,2.0546 -1.83111,2.13984 -1.09654,0.0853 -2.05464,-0.73457 -2.13984,-1.83112 z"
         style="fill:#6cdd8f;fill-opacity:1;fill-rule:nonzero;stroke:none"
         transform="scale(0.49792048)" />
      <path
         id="path306"
         d="m 657.158,441.83026 c 0.107,-1.09463 1.0811,-1.89532 2.17574,-1.78836 1.09466,0.10696 1.89532,1.08106 1.78839,2.17572 l -0.0246,0.25156 c -0.10699,1.09462 -1.08103,1.89529 -2.17573,1.78832 -1.09465,-0.10696 -1.8953,-1.08105 -1.7883,-2.17568 z"
         style="fill:#6cdd8f;fill-opacity:1;fill-rule:nonzero;stroke:none"
         transform="scale(0.49792048)" />
      <path
         id="path307"
         d="m 659.1401,442.02393 0.0122,-9.5e-4"
         style="fill:none;stroke:#6cdd8f;stroke-width:3.98293;stroke-linecap:round;stroke-linejoin:miter;stroke-miterlimit:10;stroke-dasharray:none;stroke-opacity:1"
         transform="scale(0.49792048)" />
      <path
         id="path308"
         d="m 659.15234,442.02298 0.0116,0.005"
         style="fill:none;stroke:#6cdd8f;stroke-width:3.98293;stroke-linecap:round;stroke-linejoin:miter;stroke-miterlimit:10;stroke-dasharray:none;stroke-opacity:1"
         transform="scale(0.49792048)" />
      <path
         id="path309"
         d="m 659.16394,442.02768 0.0104,0.007"
         style="fill:none;stroke:#6cdd8f;stroke-width:3.98293;stroke-linecap:round;stroke-linejoin:miter;stroke-miterlimit:10;stroke-dasharray:none;stroke-opacity:1"
         transform="scale(0.49792048)" />
      <path
         id="path310"
         d="m 660.4236,440.4841 c 1.08586,1.2836 0.77403,1.11816 1.12846,1.64713 0.52804,0.96481 0.17394,2.17501 -0.79089,2.70303 -0.96487,0.52801 -2.17497,0.17389 -2.703,-0.79093 -0.0516,-0.18078 -0.72181,-1.09123 -0.13312,-0.45745 z"
         style="fill:#6cdd8f;fill-opacity:1;fill-rule:nonzero;stroke:none"
         transform="scale(0.49792048)" />
      <path
         id="path311"
         d="m 661.55206,442.13123 c 0.56054,0.96857 0.99064,2.03847 1.5589,3.05072 0.435,1.05642 -0.0687,2.2655 -1.12516,2.70053 -1.0565,0.43502 -2.2655,-0.0688 -2.7006,-1.12518 -0.2426,-0.96357 -0.761,-1.81055 -1.22703,-2.71397 z"
         style="fill:#6cdd8f;fill-opacity:1;fill-rule:nonzero;stroke:none"
         transform="scale(0.49792048)" />
      <path
         id="path312"
         d="m 663.11096,445.18195 c 3.09364,6.51391 2.83044,13.23135 3.43704,19.54837 0.0781,1.42193 -1.01126,2.63803 -2.4332,2.71618 -1.4219,0.0782 -2.638,-1.01117 -2.7162,-2.43313 -0.4155,-6.3602 -0.2787,-12.79074 -2.1134,-18.25607 z"
         style="fill:#6cdd8f;fill-opacity:1;fill-rule:nonzero;stroke:none"
         transform="scale(0.49792048)" />
      <path
         id="path313"
         d="m 666.548,464.73032 c 0.47117,7.32916 0.7465,14.71634 0.6339,22.13038 -0.0351,1.5049 -1.2835,2.69637 -2.7884,2.66124 -1.5049,-0.0351 -2.6964,-1.28357 -2.66126,-2.78844 0.21386,-7.2087 0.01,-14.44966 -0.33364,-21.72013 z"
         style="fill:#6cdd8f;fill-opacity:1;fill-rule:nonzero;stroke:none"
         transform="scale(0.49792048)" />
      <path
         id="path314"
         d="m 667.1819,486.8607 c -0.053,3.19054 -0.1844,6.3881 -0.4862,9.6293 -0.16537,1.54476 -1.5517,2.66298 -3.0965,2.49758 -1.54476,-0.16538 -2.663,-1.55173 -2.4976,-3.0965 0.3551,-3.00028 0.53475,-6.07558 0.63064,-9.15758 z"
         style="fill:#6cdd8f;fill-opacity:1;fill-rule:nonzero;stroke:none"
         transform="scale(0.49792048)" />
      <path
         id="path315"
         d="m 666.6957,496.49 c -1.4696,2.69274 2.55534,4.49227 -5.62844,9.1717 -1.62186,-0.34874 -2.65399,-1.94625 -2.30526,-3.56813 0.3488,-1.62189 1.9463,-2.65397 3.5682,-2.30521 -4.13617,1.98346 -0.6074,-2.12042 -1.2286,-3.89728 z"
         style="fill:#6cdd8f;fill-opacity:1;fill-rule:nonzero;stroke:none"
         transform="scale(0.49792048)" />
      <path
         id="path316"
         d="m 661.6987,502.72504 -0.2145,-0.12751"
         style="fill:none;stroke:#6cdd8f;stroke-width:6.02204;stroke-linecap:round;stroke-linejoin:miter;stroke-miterlimit:10;stroke-dasharray:none;stroke-opacity:1"
         transform="scale(0.49792048)" />
      <path
         id="path317"
         d="m 661.4842,502.59753 -0.1476,-0.20675"
         style="fill:none;stroke:#6cdd8f;stroke-width:6.04564;stroke-linecap:round;stroke-linejoin:miter;stroke-miterlimit:10;stroke-dasharray:none;stroke-opacity:1"
         transform="scale(0.49792048)" />
      <path
         id="path318"
         d="m 661.3366,502.39078 -0.10686,-0.23298"
         style="fill:none;stroke:#6cdd8f;stroke-width:6.06082;stroke-linecap:round;stroke-linejoin:miter;stroke-miterlimit:10;stroke-dasharray:none;stroke-opacity:1"
         transform="scale(0.49792048)" />
      <path
         id="path319"
         d="m 658.40393,503.26083 c -2.42157,-14.21573 -0.11273,-25.93728 1.92493,-38.54156 0.31164,-1.63153 1.8869,-2.70151 3.51844,-2.38989 1.6315,0.31164 2.70147,1.88687 2.3899,3.5184 -2.13985,11.65317 -3.77974,24.92529 -2.1817,35.20697 z"
         style="fill:#6cdd8f;fill-opacity:1;fill-rule:nonzero;stroke:none"
         transform="scale(0.49792048)" />
      <path
         id="path320"
         d="m 660.32886,464.71927 c 0.7099,-3.69934 1.51159,-7.4007 2.51644,-11.08493 0.4351,-1.60126 2.0859,-2.5466 3.6872,-2.11148 1.6012,0.43512 2.5466,2.08594 2.1114,3.68719 -0.9449,3.48255 -1.71745,7.04459 -2.4067,10.63773 z"
         style="fill:#6cdd8f;fill-opacity:1;fill-rule:nonzero;stroke:none"
         transform="scale(0.49792048)" />
      <path
         id="path321"
         d="m 662.8453,453.63434 c 0.2978,-1.09324 0.61185,-2.18152 0.94114,-3.26447 0.48086,-1.58654 2.15676,-2.48291 3.74326,-2.0021 1.5866,0.4808 2.48293,2.15673 2.0021,3.74328 -0.3108,1.0293 -0.60693,2.06235 -0.8879,3.099 z"
         style="fill:#6cdd8f;fill-opacity:1;fill-rule:nonzero;stroke:none"
         transform="scale(0.49792048)" />
      <path
         id="path322"
         d="m 663.78644,450.36987 c 1.92291,-5.17923 2.72116,-11.00517 8.54431,-15.85077 1.34035,-0.94796 3.19535,-0.6299 4.14335,0.71042 0.948,1.34033 0.6299,3.19538 -0.7104,4.14338 -2.9752,2.12805 -4.65695,7.82403 -6.2319,12.73815 z"
         style="fill:#6cdd8f;fill-opacity:1;fill-rule:nonzero;stroke:none"
         transform="scale(0.49792048)" />
      <path
         id="path323"
         d="m 672.33075,434.5191 c 3.80175,-2.51886 7.65051,-2.72512 11.29025,-2.71576 1.6318,0.0458 2.9175,1.40574 2.87174,3.03754 -0.0458,1.63178 -1.40574,2.91752 -3.03754,2.87172 -2.8763,-0.0752 -5.9707,0.3889 -7.6915,1.6603 z"
         style="fill:#6cdd8f;fill-opacity:1;fill-rule:nonzero;stroke:none"
         transform="scale(0.49792048)" />
      <path
         id="path324"
         d="m 683.621,431.80334 c 5.94956,0.36753 12.18753,1.78663 16.6499,7.51053 0.9284,1.34256 0.5926,3.18353 -0.7499,4.11193 -1.3426,0.92842 -3.1836,0.59266 -4.112,-0.7499 -2.1236,-3.076 -7.3838,-4.86197 -11.9538,-4.9633 z"
         style="fill:#6cdd8f;fill-opacity:1;fill-rule:nonzero;stroke:none"
         transform="scale(0.49792048)" />
      <path
         id="path325"
         d="m 700.2709,439.31387 c 1.6558,2.39473 2.34214,5.10953 2.5561,7.6745 0.12844,1.62879 -1.0879,3.05326 -2.7167,3.18161 -1.6288,0.12836 -3.0533,-1.08798 -3.18165,-2.71676 -0.14508,-1.8183 -0.6394,-3.52432 -1.51965,-4.77732 z"
         style="fill:#6cdd8f;fill-opacity:1;fill-rule:nonzero;stroke:none"
         transform="scale(0.49792048)" />
      <path
         id="path326"
         d="m 702.827,446.98837 c 0.1291,1.61066 0.0568,3.27857 -0.2558,4.90677 -0.3068,1.60576 -1.8572,2.65876 -3.463,2.35193 -1.60576,-0.30682 -2.65874,-1.85727 -2.3519,-3.46301 0.2074,-1.08112 0.2615,-2.19306 0.17235,-3.33084 z"
         style="fill:#6cdd8f;fill-opacity:1;fill-rule:nonzero;stroke:none"
         transform="scale(0.49792048)" />
      <path
         id="path327"
         d="m 702.5712,451.89514 c -1.12644,5.52496 -4.4171,9.62784 -7.8799,13.05472 -1.15974,1.12918 -3.0152,1.10446 -4.1444,-0.0552 -1.12924,-1.15967 -1.1045,-3.01519 0.0552,-4.14438 2.9475,-2.93594 5.4957,-6.43104 6.1542,-9.96618 l 5.8149,1.11108 z"
         style="fill:#6cdd8f;fill-opacity:1;fill-rule:nonzero;stroke:none"
         transform="scale(0.49792048)" />
      <path
         id="path328"
         d="m 694.6913,464.94986 c -5.3183,5.00717 -12.8227,9.50714 -21.20345,7.31567 -1.19365,-0.27996 -1.93435,-1.47458 -1.65435,-2.66821 0.27996,-1.19362 1.47454,-1.93432 2.6682,-1.65436 5.64094,0.64102 11.6703,-2.80746 16.1004,-7.19272 z"
         style="fill:#6cdd8f;fill-opacity:1;fill-rule:nonzero;stroke:none"
         transform="scale(0.49792048)" />
      <path
         id="path329"
         d="m 673.48785,472.26553 c -5.82505,-1.74023 -9.95251,-6.56048 -11.88135,-11.57345 -0.4225,-1.01544 0.0582,-2.18118 1.0736,-2.60373 1.01546,-0.42252 2.18117,0.0581 2.6037,1.07358 1.76314,4.29034 4.8806,8.22882 9.2179,8.78103 z"
         style="fill:#6cdd8f;fill-opacity:1;fill-rule:nonzero;stroke:none"
         transform="scale(0.49792048)" />
      <path
         id="path330"
         d="m 661.6065,460.69208 c -0.1128,-0.27112 -0.22137,-0.54383 -0.3259,-0.81908 -0.39065,-1.02818 0.1262,-2.1783 1.1544,-2.5689 1.02813,-0.3906 2.1783,0.1263 2.56885,1.15446 0.0894,0.23534 0.18292,0.47014 0.27995,0.70337 z"
         style="fill:#6cdd8f;fill-opacity:1;fill-rule:nonzero;stroke:none"
         transform="scale(0.49792048)" />
      <path
         id="path331"
         d="m 731.4071,446.72476 0.0282,-0.15692"
         style="fill:none;stroke:#6cdd8f;stroke-width:3.98293;stroke-linecap:round;stroke-linejoin:miter;stroke-miterlimit:10;stroke-dasharray:none;stroke-opacity:1"
         transform="scale(0.49792048)" />
      <path
         id="path332"
         d="m 729.47534,446.21494 c 0.2381,-1.29416 0.40736,-2.34336 0.32746,-3.36759 -0.0747,-1.09732 0.75445,-2.04735 1.85174,-2.12201 1.09736,-0.0746 2.04736,0.75443 2.12201,1.85176 0.12195,1.56813 -0.15445,3.0982 -0.38129,4.34365 z"
         style="fill:#6cdd8f;fill-opacity:1;fill-rule:nonzero;stroke:none"
         transform="scale(0.49792048)" />
      <path
         id="path333"
         d="m 729.7273,442.16003 c -0.11774,-1.09353 0.67333,-2.07547 1.76684,-2.19317 1.09356,-0.11771 2.0755,0.67337 2.19316,1.7669 l 0.0824,0.76532 c 0.11775,1.09354 -0.6733,2.07547 -1.7669,2.19318 -1.0935,0.11771 -2.07543,-0.67336 -2.19317,-1.76691 l -0.0823,-0.76532 z"
         style="fill:#6cdd8f;fill-opacity:1;fill-rule:nonzero;stroke:none"
         transform="scale(0.49792048)" />
      <path
         id="path334"
         d="m 729.737,442.2364 c -0.1918,-1.34413 -0.76135,-2.65574 -1.4868,-3.1899 -0.86,-0.6856 -1.00136,-1.9386 -0.31575,-2.79858 0.68565,-0.86002 1.93865,-1.00137 2.79865,-0.31572 1.9649,1.63326 2.61315,3.76287 2.9445,5.7252 z"
         style="fill:#6cdd8f;fill-opacity:1;fill-rule:nonzero;stroke:none"
         transform="scale(0.49792048)" />
      <path
         id="path335"
         d="m 728.2502,439.0465 c -0.48146,-0.3923 -1.20894,-0.64315 -2.068,-0.7185 -1.09547,-0.0981 -1.904,-1.06567 -1.8059,-2.16116 0.0981,-1.09546 1.06566,-1.90399 2.1611,-1.80591 1.37483,0.12332 2.9059,0.5412 4.1957,1.57127 z"
         style="fill:#6cdd8f;fill-opacity:1;fill-rule:nonzero;stroke:none"
         transform="scale(0.49792048)" />
      <path
         id="path336"
         d="m 726.1822,438.328 c -0.9784,-0.0872 -2.0323,0.0431 -3.0599,0.3442 -1.05565,0.30876 -2.16167,-0.29668 -2.47044,-1.3523 -0.30876,-1.05565 0.29669,-2.1617 1.35229,-2.47047 1.42749,-0.41596 2.95695,-0.62643 4.53325,-0.4885 z"
         style="fill:#6cdd8f;fill-opacity:1;fill-rule:nonzero;stroke:none"
         transform="scale(0.49792048)" />
      <path
         id="path337"
         d="m 723.1223,438.6722 c -1.2152,0.38203 -2.398,0.9878 -3.48985,1.7494 -0.92725,0.63815 -2.19625,0.40378 -2.83435,-0.52344 -0.6381,-0.92721 -0.40375,-2.19616 0.52343,-2.83429 1.41114,-0.9602 2.97773,-1.74041 4.68262,-2.21444 z"
         style="fill:#6cdd8f;fill-opacity:1;fill-rule:nonzero;stroke:none"
         transform="scale(0.49792048)" />
      <path
         id="path338"
         d="m 719.63245,440.4216 c -3.91885,2.77246 -6.70252,7.3933 -8.50325,12.171 -0.39354,1.06032 -1.5722,1.60085 -2.63256,1.20727 -1.0603,-0.39359 -1.60084,-1.57224 -1.20727,-2.63257 2.03123,-5.3071 4.98573,-10.5381 10.03216,-14.10343 z"
         style="fill:#6cdd8f;fill-opacity:1;fill-rule:nonzero;stroke:none"
         transform="scale(0.49792048)" />
      <path
         id="path339"
         d="m 711.1292,452.5926 c -1.425,3.87105 -2.3008,8.07497 -1.92296,11.9565 0.12046,1.11975 -0.68954,2.1252 -1.80924,2.2457 -1.1198,0.1205 -2.1252,-0.6895 -2.24575,-1.80927 -0.45205,-4.88626 0.57375,-9.48287 2.13812,-13.81823 z"
         style="fill:#6cdd8f;fill-opacity:1;fill-rule:nonzero;stroke:none"
         transform="scale(0.49792048)" />
      <path
         id="path340"
         d="m 709.20624,464.5491 c 0.21991,2.19797 1.01971,4.25663 2.39106,5.2414 0.9048,0.67544 1.0907,1.95648 0.4153,2.8613 -0.6755,0.90478 -1.9565,1.09072 -2.86135,0.41528 -2.7721,-2.12468 -3.68775,-5.32428 -4,-8.08155 z"
         style="fill:#6cdd8f;fill-opacity:1;fill-rule:nonzero;stroke:none"
         transform="scale(0.49792048)" />
      <path
         id="path341"
         d="m 711.5973,469.7905 c 0.799,0.60263 1.8966,0.92248 3.1049,0.97262 1.13276,0.0488 2.0114,1.00653 1.96266,2.13925 -0.0488,1.13273 -1.00656,2.01143 -2.13923,1.96265 -1.79223,-0.0799 -3.74583,-0.57266 -5.37438,-1.79794 z"
         style="fill:#6cdd8f;fill-opacity:1;fill-rule:nonzero;stroke:none"
         transform="scale(0.49792048)" />
      <path
         id="path342"
         d="m 714.7022,470.76312 c 1.3253,0.0554 2.6862,-0.20447 3.9764,-0.7218 1.0568,-0.42082 2.2547,0.0949 2.6755,1.1517 0.4208,1.05686 -0.0949,2.25473 -1.1517,2.67554 -1.7645,0.70344 -3.7084,1.08569 -5.67677,0.99646 z"
         style="fill:#6cdd8f;fill-opacity:1;fill-rule:nonzero;stroke:none"
         transform="scale(0.49792048)" />
      <path
         id="path343"
         d="m 718.6786,470.04132 c 1.437,-0.57367 2.8128,-1.46712 4.074,-2.53628 0.8688,-0.73661 2.1702,-0.62946 2.9068,0.23936 0.7366,0.86876 0.6295,2.17015 -0.2393,2.90675 -1.5276,1.2916 -3.2511,2.43332 -5.2177,3.21741 z"
         style="fill:#6cdd8f;fill-opacity:1;fill-rule:nonzero;stroke:none"
         transform="scale(0.49792048)" />
      <path
         id="path344"
         d="m 722.7526,467.50504 c 1.44344,-1.22574 2.73257,-2.67154 3.8298,-4.25064 0.6487,-0.9349 1.93243,-1.16694 2.86737,-0.51825 0.93487,0.64868 1.16693,1.93243 0.51823,2.86735 -1.28764,1.8568 -2.80174,3.5642 -4.5479,5.04765 z"
         style="fill:#6cdd8f;fill-opacity:1;fill-rule:nonzero;stroke:none"
         transform="scale(0.49792048)" />
      <path
         id="path345"
         d="m 726.5824,463.2544 c 6.07196,-9.3414 6.8717,-21.73536 7.5303,-33.32517 0.042,-1.11083 0.9765,-1.97733 2.0873,-1.93536 1.11085,0.042 1.97737,0.9765 1.9354,2.08733 -0.7209,11.88508 -1.1689,24.478 -8.1674,35.5223 z"
         style="fill:#6cdd8f;fill-opacity:1;fill-rule:nonzero;stroke:none"
         transform="scale(0.49792048)" />
      <path
         id="path346"
         d="m 734.1127,429.92923 c 0.1408,-3.58661 0.1766,-7.17627 0.0716,-10.75357 -0.0341,-1.09934 0.82943,-2.01819 1.92873,-2.05231 1.0993,-0.0342 2.01816,0.82935 2.0523,1.92868 0.1212,3.68187 0.102,7.35874 -0.0299,11.02917 l -4.0227,-0.15197 z"
         style="fill:#6cdd8f;fill-opacity:1;fill-rule:nonzero;stroke:none"
         transform="scale(0.49792048)" />
      <path
         id="path347"
         d="m 734.18427,419.17566 c -0.11127,-3.66272 -0.38277,-7.33056 -0.71577,-11.01266 -0.0994,-1.09537 0.7081,-2.06385 1.8035,-2.16318 1.0953,-0.0993 2.0638,0.70813 2.1631,1.80348 0.3369,3.72432 0.61556,7.4769 0.7302,11.24873 z"
         style="fill:#6cdd8f;fill-opacity:1;fill-rule:nonzero;stroke:none"
         transform="scale(0.49792048)" />
      <path
         id="path348"
         d="m 733.4685,408.163 c -0.2805,-2.9792 -0.55627,-5.99152 -1.04394,-8.8224 -0.19346,-1.0827 0.52734,-2.11727 1.61004,-2.31078 1.0827,-0.19349 2.11726,0.52734 2.31074,1.61004 0.53509,3.12314 0.80226,6.13234 1.08976,9.16344 z"
         style="fill:#6cdd8f;fill-opacity:1;fill-rule:nonzero;stroke:none"
         transform="scale(0.49792048)" />
      <path
         id="path349"
         d="m 732.42456,399.3406 c 0.30584,-0.81335 -1.77582,-3.2826 0.70054,-1.87008 -1.09983,0 -1.99143,-0.8916 -1.99143,-1.99146 0,-1.09986 0.8916,-1.99146 1.99143,-1.99146 4.31954,3.14054 2.33114,3.56272 3.22024,5.15226 z"
         style="fill:#6cdd8f;fill-opacity:1;fill-rule:nonzero;stroke:none"
         transform="scale(0.49792048)" />
      <path
         id="path350"
         d="m 733.1251,395.47906 -0.1312,0.0424"
         style="fill:none;stroke:#6cdd8f;stroke-width:3.98293;stroke-linecap:round;stroke-linejoin:miter;stroke-miterlimit:10;stroke-dasharray:none;stroke-opacity:1"
         transform="scale(0.49792048)" />
      <path
         id="path351"
         d="m 732.9939,395.52142 -0.1021,0.0959"
         style="fill:none;stroke:#6cdd8f;stroke-width:3.98293;stroke-linecap:round;stroke-linejoin:miter;stroke-miterlimit:10;stroke-dasharray:none;stroke-opacity:1"
         transform="scale(0.49792048)" />
      <path
         id="path352"
         d="m 732.8918,395.61734 -0.0806,0.11569"
         style="fill:none;stroke:#6cdd8f;stroke-width:3.98293;stroke-linecap:round;stroke-linejoin:miter;stroke-miterlimit:10;stroke-dasharray:none;stroke-opacity:1"
         transform="scale(0.49792048)" />
      <path
         id="path353"
         d="m 734.51605,396.7623 c -2.36815,9.34747 -3.64535,20.8763 -4.1242,31.50043 -0.05,1.09872 -0.98125,1.94885 -2.08005,1.8988 -1.09867,-0.0501 -1.94876,-0.98129 -1.8987,-2.08003 0.64305,-11.18178 1.3957,-21.61757 4.69316,-33.3777 z"
         style="fill:#6cdd8f;fill-opacity:1;fill-rule:nonzero;stroke:none"
         transform="scale(0.49792048)" />
      <path
         id="path354"
         d="m 730.39185,428.26273 c -0.36875,10.81585 -0.60718,21.93407 1.82251,32.18164 0.27604,1.06463 -0.36316,2.15153 -1.42786,2.42758 -1.06464,0.27605 -2.1515,-0.36319 -2.42755,-1.42785 -2.62268,-11.19917 -2.29935,-22.30845 -1.94585,-33.3626 z"
         style="fill:#6cdd8f;fill-opacity:1;fill-rule:nonzero;stroke:none"
         transform="scale(0.49792048)" />
      <path
         id="path355"
         d="m 732.21436,460.44437 c 1.00848,4.17373 3.57544,9.97445 6.09544,9.65143 1.0927,-0.12497 2.0799,0.65957 2.20485,1.75228 0.12495,1.09275 -0.65955,2.0799 -1.75235,2.20484 -8.3367,-1.30008 -8.5868,-8.12702 -10.40335,-12.60882 z"
         style="fill:#6cdd8f;fill-opacity:1;fill-rule:nonzero;stroke:none"
         transform="scale(0.49792048)" />
      <path
         id="path356"
         d="m 738.3098,470.0958 c 0.4018,-0.0414 0.89516,-0.29624 1.4433,-0.8312 0.7909,-0.76433 2.05165,-0.74275 2.81593,0.0481 0.76437,0.7909 0.74274,2.05164 -0.0481,2.81596 -0.86935,0.84954 -2.1495,1.74484 -3.7586,1.92422 -1.0927,0.12498 -2.0798,-0.65955 -2.2048,-1.75229 -0.12494,-1.09273 0.6596,-2.07987 1.7523,-2.20483 z"
         style="fill:#6cdd8f;fill-opacity:1;fill-rule:nonzero;stroke:none"
         transform="scale(0.49792048)" />
      <path
         id="path357"
         d="m 739.7531,469.2646 c 0.8201,-0.79902 1.6283,-2.00044 2.3592,-3.20033 0.5693,-0.94107 1.79364,-1.24247 2.73475,-0.67319 0.94105,0.56928 1.24245,1.79364 0.67315,2.73472 -0.8373,1.34976 -1.6791,2.68795 -2.9993,4.0029 z"
         style="fill:#6cdd8f;fill-opacity:1;fill-rule:nonzero;stroke:none"
         transform="scale(0.49792048)" />
      <path
         id="path358"
         d="m 742.36646,465.63693 c 0.56224,-0.94537 1.78444,-1.25589 2.72974,-0.69357 0.9452,0.56229 1.25567,1.78427 0.69353,2.72952 l -0.26183,0.44012 c -0.56226,0.94538 -1.78443,1.2559 -2.72974,0.69355 -0.94519,-0.56225 -1.25566,-1.78425 -0.69356,-2.72949 z"
         style="fill:#6cdd8f;fill-opacity:1;fill-rule:nonzero;stroke:none"
         transform="scale(0.49792048)" />
      <path
         id="path359"
         d="m 769.1883,414.044 c 0.11047,-1.10034 0.13775,-2.13293 -0.0474,-2.97128 -0.2283,-1.07589 0.4588,-2.13318 1.5347,-2.36152 1.07586,-0.22835 2.1332,0.45872 2.3615,1.53462 0.3191,1.51923 0.23506,2.91922 0.11366,4.20135 -0.11136,1.09421 -1.08863,1.891 -2.1828,1.77967 -1.09426,-0.11134 -1.89099,-1.08864 -1.77966,-2.18284 z"
         style="fill:#6cdd8f;fill-opacity:1;fill-rule:nonzero;stroke:none"
         transform="scale(0.49792048)" />
      <path
         id="path360"
         d="m 769.1409,411.07272 c -0.16403,-0.80014 -0.583,-1.71702 -1.0838,-2.63022 -0.5312,-0.96304 -0.1811,-2.1744 0.7819,-2.70562 0.96306,-0.53122 2.1744,-0.18115 2.7057,0.78189 0.59257,1.09717 1.1774,2.27523 1.4924,3.72705 z"
         style="fill:#6cdd8f;fill-opacity:1;fill-rule:nonzero;stroke:none"
         transform="scale(0.49792048)" />
      <path
         id="path361"
         d="m 768.0571,408.4425 c -0.7262,-1.31228 -1.5559,-2.46664 -2.5654,-3.29962 -0.84454,-0.70458 -0.958,-1.96038 -0.2534,-2.80493 0.7046,-0.84455 1.96037,-0.95798 2.8049,-0.25339 1.53834,1.2775 2.63527,2.87259 3.5015,4.43421 z"
         style="fill:#6cdd8f;fill-opacity:1;fill-rule:nonzero;stroke:none"
         transform="scale(0.49792048)" />
      <path
         id="path362"
         d="m 765.4917,405.14288 c -0.3762,-0.31396 -0.7835,-0.59548 -1.21375,-0.84058 -0.95575,-0.54427 -1.2893,-1.76028 -0.74499,-2.71603 0.54434,-0.95572 1.76034,-1.28927 2.71604,-0.74499 0.63094,0.3594 1.2327,0.77469 1.7942,1.24328 z"
         style="fill:#6cdd8f;fill-opacity:1;fill-rule:nonzero;stroke:none"
         transform="scale(0.49792048)" />
      <path
         id="path363"
         d="m 764.27795,404.3023 c -0.46585,-0.2653 -0.95489,-0.48577 -1.45695,-0.65548 -1.04195,-0.35222 -1.6011,-1.48242 -1.24886,-2.52435 0.35226,-1.04193 1.48243,-1.60105 2.52436,-1.24881 0.7496,0.25342 1.4703,0.57914 2.1525,0.96762 z"
         style="fill:#6cdd8f;fill-opacity:1;fill-rule:nonzero;stroke:none"
         transform="scale(0.49792048)" />
      <path
         id="path364"
         d="m 762.821,403.64682 c -0.4014,-0.13582 -0.8147,-0.24048 -1.2336,-0.31335 -1.0837,-0.18821 -1.80957,-1.21921 -1.6214,-2.30287 0.18824,-1.0836 1.21924,-1.80953 2.30286,-1.62133 0.61938,0.10773 1.23074,0.26245 1.82764,0.46439 z"
         style="fill:#6cdd8f;fill-opacity:1;fill-rule:nonzero;stroke:none"
         transform="scale(0.49792048)" />
      <path
         id="path365"
         d="m 761.5874,403.33347 c -1.2565,-0.22357 -2.56836,-0.14237 -3.2768,0.2929 -0.95696,0.54206 -2.17223,0.20569 -2.7143,-0.75131 -0.54204,-0.957 -0.2057,-2.17224 0.75136,-2.71429 2.07788,-1.12635 4.11194,-1.02835 5.9212,-0.7515 z"
         style="fill:#6cdd8f;fill-opacity:1;fill-rule:nonzero;stroke:none"
         transform="scale(0.49792048)" />
      <path
         id="path366"
         d="m 758.3106,403.62637 c -0.5318,0.29416 -1.0229,0.86261 -1.4229,1.64051 -0.5052,0.97696 -1.7067,1.35942 -2.68366,0.85424 -0.97699,-0.50515 -1.35944,-1.70669 -0.85431,-2.68365 0.61762,-1.19767 1.56447,-2.46817 2.99793,-3.2767 z"
         style="fill:#6cdd8f;fill-opacity:1;fill-rule:nonzero;stroke:none"
         transform="scale(0.49792048)" />
      <path
         id="path367"
         d="m 756.8877,405.26688 c -0.45636,0.88379 -0.77027,1.95582 -0.9612,3.06527 -0.187,1.08387 -1.2172,1.81092 -2.301,1.62395 -1.0839,-0.187 -1.8109,-1.2172 -1.624,-2.30104 0.2467,-1.40526 0.635,-2.82326 1.34823,-4.21759 z"
         style="fill:#6cdd8f;fill-opacity:1;fill-rule:nonzero;stroke:none"
         transform="scale(0.49792048)" />
      <path
         id="path368"
         d="m 755.9265,408.33215 c -1.0243,6.95609 1.3676,14.45085 3.2998,21.84159 0.2878,1.06156 -0.3394,2.15539 -1.401,2.44316 -1.0615,0.28782 -2.1553,-0.33943 -2.44316,-1.40096 -1.87097,-7.40224 -4.5531,-15.04379 -3.38064,-23.56088 z"
         style="fill:#6cdd8f;fill-opacity:1;fill-rule:nonzero;stroke:none"
         transform="scale(0.49792048)" />
      <path
         id="path369"
         d="m 759.2263,430.17374 c 3.7604,13.20906 6.5935,27.02609 6.1867,41.11541 -0.0462,1.09888 -0.97446,1.95225 -2.07334,1.90605 -1.09896,-0.0462 -1.95226,-0.9745 -1.90606,-2.0734 0.38366,-13.39557 -2.31306,-26.80112 -6.05146,-39.90586 z"
         style="fill:#6cdd8f;fill-opacity:1;fill-rule:nonzero;stroke:none"
         transform="scale(0.49792048)" />
      <path
         id="path370"
         d="m 765.413,471.28915 c -0.26365,5.83295 -1.27036,11.90365 -4.4971,17.28989 -0.57746,0.93606 -1.80445,1.22681 -2.7405,0.64936 -0.9361,-0.57743 -1.2268,-1.8044 -0.6494,-2.7405 2.6688,-4.4178 3.6814,-9.92003 3.9076,-15.3661 z"
         style="fill:#6cdd8f;fill-opacity:1;fill-rule:nonzero;stroke:none"
         transform="scale(0.49792048)" />
      <path
         id="path371"
         d="m 760.9159,488.57904 c -2.46174,3.71329 -6.7821,8.62646 -13.3179,6.11432 -0.9641,-0.52926 -1.3166,-1.73993 -0.78733,-2.70406 0.5293,-0.96412 1.73993,-1.31663 2.70403,-0.78737 2.18885,1.27652 6.21144,-1.47836 8.0113,-4.71403 z"
         style="fill:#6cdd8f;fill-opacity:1;fill-rule:nonzero;stroke:none"
         transform="scale(0.49792048)" />
      <path
         id="path372"
         d="m 747.598,494.69336 c -2.82957,-1.67831 -3.53623,-4.41699 -4.0743,-6.57559 -0.2334,-1.07483 0.4487,-2.13532 1.52354,-2.36869 1.07486,-0.23333 2.13532,0.4488 2.36866,1.52359 0.3757,1.81507 1.1453,3.48066 2.0988,3.92926 0.9642,0.5293 1.31666,1.73997 0.78736,2.70407 -0.52926,0.96415 -1.73993,1.31666 -2.70406,0.78736 z"
         style="fill:#6cdd8f;fill-opacity:1;fill-rule:nonzero;stroke:none"
         transform="scale(0.49792048)" />
      <path
         id="path373"
         d="m 745.4698,487.69522 -0.0209,-0.0979"
         style="fill:none;stroke:#6cdd8f;stroke-width:3.98293;stroke-linecap:round;stroke-linejoin:miter;stroke-miterlimit:10;stroke-dasharray:none;stroke-opacity:1"
         transform="scale(0.49792048)" />
      <path
         id="path374"
         d="m 772.87695,446.64865 c 0.007,-0.27575 -0.14975,-0.32373 0.16498,0.0772 -0.77283,-0.78256 -0.76489,-2.04346 0.0177,-2.81628 0.78253,-0.77283 2.04347,-0.76495 2.81627,0.0177 0.9108,1.01573 0.8881,1.85548 0.97066,2.39565 0.0899,1.09615 -0.72571,2.05773 -1.8219,2.1477 -1.09619,0.09 -2.05776,-0.72571 -2.14771,-1.8219 z"
         style="fill:#6cdd8f;fill-opacity:1;fill-rule:nonzero;stroke:none"
         transform="scale(0.49792048)" />
      <path
         id="path375"
         d="m 772.92426,446.78134 c -0.98102,-0.49722 -1.37326,-1.69559 -0.87606,-2.67664 0.4972,-0.98104 1.6956,-1.37325 2.67665,-0.87603 l 0.6344,0.3215 c 0.98105,0.49723 1.37325,1.69559 0.87605,2.67663 -0.4972,0.98106 -1.6956,1.37327 -2.67665,0.87604 z"
         style="fill:#6cdd8f;fill-opacity:1;fill-rule:nonzero;stroke:none"
         transform="scale(0.49792048)" />
      <path
         id="path376"
         d="m 772.8948,446.9362 c -1.0972,-0.0769 -1.9243,-1.0287 -1.8474,-2.12587 0.0769,-1.09716 1.0287,-1.92425 2.1259,-1.84735 l 0.7905,0.0554 c 1.0972,0.0769 1.92426,1.0287 1.84736,2.12586 -0.0769,1.09716 -1.02866,1.92424 -2.12586,1.84734 l -0.7905,-0.0554 z"
         style="fill:#6cdd8f;fill-opacity:1;fill-rule:nonzero;stroke:none"
         transform="scale(0.49792048)" />
      <path
         id="path377"
         d="m 773.1022,446.93988 c -1.71115,0.12277 -4.0237,0.98227 -6.18185,1.7829 -1.03865,0.37882 -2.18768,-0.15604 -2.56655,-1.19464 -0.37876,-1.03864 0.1561,-2.18769 1.1947,-2.5665 2.27737,-0.75904 4.3973,-1.73962 7.4174,-2.00234 z"
         style="fill:#6cdd8f;fill-opacity:1;fill-rule:nonzero;stroke:none"
         transform="scale(0.49792048)" />
      <path
         id="path378"
         d="m 766.92035,448.72278 c -4.8122,1.80749 -9.94345,3.24789 -15.17595,3.87277 -1.09193,0.13162 -2.0838,-0.64685 -2.21547,-1.73883 -0.13163,-1.09195 0.64687,-2.08382 1.73883,-2.21545 4.86438,-0.59317 9.5987,-1.88327 14.28074,-3.67963 z"
         style="fill:#6cdd8f;fill-opacity:1;fill-rule:nonzero;stroke:none"
         transform="scale(0.49792048)" />
      <path
         id="path379"
         d="m 751.7444,452.59555 c -2.86446,0.34795 -5.73415,0.44272 -8.5667,0.40772 -1.09976,-0.014 -1.98,-0.91687 -1.96597,-2.01664 0.014,-1.09976 0.91681,-1.97998 2.0166,-1.96597 2.71112,0.0335 5.39677,-0.0582 8.03943,-0.37939 z"
         style="fill:#6cdd8f;fill-opacity:1;fill-rule:nonzero;stroke:none"
         transform="scale(0.49792048)" />
      <path
         id="path380"
         d="m 743.1777,453.00327 c -0.5586,-0.007 -1.11575,-0.0198 -1.6752,-0.0385 -1.09924,-0.0368 -1.9605,-0.95775 -1.9237,-2.05696 0.0368,-1.09924 0.95776,-1.96054 2.057,-1.92374 0.5295,0.0177 1.06165,0.0297 1.59253,0.0366 l -0.0506,3.98261 z"
         style="fill:#6cdd8f;fill-opacity:1;fill-rule:nonzero;stroke:none"
         transform="scale(0.49792048)" />
    </g>
  </g>
</svg>
